<svg width="96" height="72" viewBox="0 0 96 72" fill="none" xmlns="http://www.w3.org/2000/svg">
<g clip-path="url(#clip0_41_5445)">
<path d="M95.8076 62.5887H0.807617V62.6364H95.8076V62.5887Z" fill="#EBEBEB"/>
<path d="M86.2884 65.6547H76.2051V65.7023H86.2884V65.6547Z" fill="#EBEBEB"/>
<path d="M63.7396 65.0582H52.5942V65.1059H63.7396V65.0582Z" fill="#EBEBEB"/>
<path d="M76.6915 64.7819H73.0454V64.8295H76.6915V64.7819Z" fill="#EBEBEB"/>
<path d="M28.1031 64.2064H19.897V64.2541H28.1031V64.2064Z" fill="#EBEBEB"/>
<path d="M18.8384 64.2064H15.9048V64.2541H18.8384V64.2064Z" fill="#EBEBEB"/>
<path d="M36.0851 65.0106H25.7871V65.0583H36.0851V65.0106Z" fill="#EBEBEB"/>
<path d="M45.8393 54.0903H9.15033C8.55183 54.0903 8.06543 53.6025 8.06543 53.0023V1.28188C8.06543 0.68165 8.55183 0.193848 9.15033 0.193848H45.8393C46.4378 0.193848 46.9242 0.68165 46.9242 1.28188V53.0023C46.9242 53.6025 46.4378 54.0903 45.8393 54.0903ZM9.15033 0.241485C8.57843 0.241485 8.11293 0.708327 8.11293 1.28188V53.0023C8.11293 53.5758 8.57843 54.0426 9.15033 54.0426H45.8393C46.4112 54.0426 46.8767 53.5758 46.8767 53.0023V1.28188C46.8767 0.708327 46.4112 0.241485 45.8393 0.241485H9.15033Z" fill="#EBEBEB"/>
<path d="M86.9365 54.0903H50.2475C49.649 54.0903 49.1626 53.6025 49.1626 53.0023V1.28188C49.1626 0.68165 49.649 0.193848 50.2475 0.193848H86.9365C87.535 0.193848 88.0214 0.68165 88.0214 1.28188V53.0023C88.0214 53.6025 87.535 54.0903 86.9365 54.0903ZM50.2475 0.241485C49.6756 0.241485 49.2101 0.708327 49.2101 1.28188V53.0023C49.2101 53.5758 49.6756 54.0426 50.2475 54.0426H86.9365C87.5084 54.0426 87.9739 53.5758 87.9739 53.0023V1.28188C87.9739 0.708327 87.5084 0.241485 86.9365 0.241485H50.2475Z" fill="#EBEBEB"/>
<path d="M51.4826 60.9747H53.4795V37.1505H51.4826V60.9747Z" fill="#F0F0F0"/>
<path d="M13.1083 62.564L52.7119 62.564V60.9767L13.1083 60.9767V62.564Z" fill="#F0F0F0"/>
<path d="M51.4823 37.1525H12.3423V60.9767H51.4823V37.1525Z" fill="#F5F5F5"/>
<path d="M51.9537 37.1505H54.0171V35.649H51.9537V37.1505Z" fill="#E0E0E0"/>
<path d="M51.9536 35.6514H11.8066V37.1529H51.9536V35.6514Z" fill="#EBEBEB"/>
<path d="M48.4327 39.0007H15.3898C14.5734 39.0007 13.9116 39.6645 13.9116 40.4832V45.7366C13.9116 46.5553 14.5734 47.2191 15.3898 47.2191H48.4327C49.2491 47.2191 49.9109 46.5553 49.9109 45.7366V40.4832C49.9109 39.6645 49.2491 39.0007 48.4327 39.0007Z" fill="white"/>
<path d="M48.4327 49.6733H15.3898C14.5734 49.6733 13.9116 50.3371 13.9116 51.1558V56.4092C13.9116 57.2279 14.5734 57.8917 15.3898 57.8917H48.4327C49.2491 57.8917 49.9109 57.2279 49.9109 56.4092V51.1558C49.9109 50.3371 49.2491 49.6733 48.4327 49.6733Z" fill="white"/>
<path d="M23.4041 39.8792H40.4205C40.6063 39.8792 40.7568 39.7282 40.7568 39.5419V39.0903C40.7568 38.904 40.6063 38.753 40.4205 38.753H23.4041C23.2184 38.753 23.0678 38.904 23.0678 39.0903V39.5419C23.0678 39.7282 23.2184 39.8792 23.4041 39.8792Z" fill="#F5F5F5"/>
<path d="M23.4041 50.5499H40.4205C40.6063 50.5499 40.7568 50.3989 40.7568 50.2127V49.7611C40.7568 49.5748 40.6063 49.4238 40.4205 49.4238H23.4041C23.2184 49.4238 23.0678 49.5748 23.0678 49.7611V50.2127C23.0678 50.3989 23.2184 50.5499 23.4041 50.5499Z" fill="#F5F5F5"/>
<path d="M85.7735 44.9668H79.7505V46.1215H85.7735V44.9668Z" fill="#E6E6E6"/>
<path d="M75.1356 62.5887H76.2471V23.0691H75.1356V62.5887Z" fill="#E6E6E6"/>
<path d="M71.286 46.1234H79.7524V44.9687H71.286V46.1234Z" fill="#F5F5F5"/>
<path d="M85.7735 55.6013H79.7505V56.756H85.7735V55.6013Z" fill="#E6E6E6"/>
<path d="M71.286 56.756H79.7524V55.6013H71.286V56.756Z" fill="#F5F5F5"/>
<path d="M85.7735 23.7017H79.7505V24.8564H85.7735V23.7017Z" fill="#E6E6E6"/>
<path d="M71.286 24.8545H79.7524V23.6998H71.286V24.8545Z" fill="#F5F5F5"/>
<path d="M85.7735 34.3342H79.7505V35.4889H85.7735V34.3342Z" fill="#E6E6E6"/>
<path d="M71.286 35.489H79.7524V34.3343H71.286V35.489Z" fill="#F5F5F5"/>
<path d="M83.6019 62.5887H84.7134V23.0691H83.6019V62.5887Z" fill="#E6E6E6"/>
<path d="M78.639 62.5887H79.7505V23.0691H78.639V62.5887Z" fill="#F5F5F5"/>
<path d="M71.286 62.5887H72.3975V23.0691H71.286V62.5887Z" fill="#F5F5F5"/>
<path d="M17.5066 32.3354L67.7046 32.3354V5.60731L17.5066 5.60731V32.3354Z" fill="#E0E0E0"/>
<path d="M16.2393 32.3354L66.9883 32.3354V5.60731L16.2393 5.60731V32.3354Z" fill="#F5F5F5"/>
<path d="M65.1699 30.2298V7.71472L18.0575 7.71472V30.2298L65.1699 30.2298Z" fill="white"/>
<path d="M48.3078 71.1939C68.6535 71.1939 85.147 70.2282 85.147 69.0369C85.147 67.8456 68.6535 66.8799 48.3078 66.8799C27.9622 66.8799 11.4688 67.8456 11.4688 69.0369C11.4688 70.2282 27.9622 71.1939 48.3078 71.1939Z" fill="#F5F5F5"/>
<path d="M74.4936 40.0698H21.8104C21.4627 40.0698 21.1777 39.784 21.1777 39.4353C21.1777 39.0866 21.4627 38.8008 21.8104 38.8008H74.4936C74.8413 38.8008 75.1263 39.0866 75.1263 39.4353C75.1263 39.784 74.8413 40.0698 74.4936 40.0698Z" fill="#1D4898"/>
<path opacity="0.3" d="M74.4934 40.0698H62.1605C61.8128 40.0698 61.5278 39.784 61.5278 39.4353C61.5278 39.0866 61.8128 38.8008 62.1605 38.8008H74.4934C74.8411 38.8008 75.1261 39.0866 75.1261 39.4353C75.1261 39.784 74.8411 40.0698 74.4934 40.0698Z" fill="#263238"/>
<path d="M73.1562 41.6609H32.6387V46.0835H73.1562V41.6609Z" fill="#263238"/>
<path opacity="0.1" d="M73.1562 41.6609H32.6387V46.0835H73.1562V41.6609Z" fill="white"/>
<path d="M72.5652 68.1566H73.7793L73.7299 40.0698H72.0503L72.5652 68.1566Z" fill="#263238"/>
<path opacity="0.1" d="M72.5652 68.1566H73.7793L73.7299 40.0698H72.0503L72.5652 68.1566Z" fill="white"/>
<path d="M61.3948 68.1566H60.1807L62.9243 40.0698H64.6039L61.3948 68.1566Z" fill="#263238"/>
<path opacity="0.2" d="M61.3948 68.1566H60.1807L62.9243 40.0698H64.6039L61.3948 68.1566Z" fill="white"/>
<path d="M32.2165 68.1566H33.4287L33.3793 40.0698H31.6997L32.2165 68.1566Z" fill="#263238"/>
<path opacity="0.1" d="M32.2165 68.1566H33.4287L33.3793 40.0698H31.6997L32.2165 68.1566Z" fill="white"/>
<path d="M21.0447 68.1566H19.8306L22.5742 40.0698H24.2538L21.0447 68.1566Z" fill="#263238"/>
<path opacity="0.2" d="M21.0447 68.1566H19.8306L22.5742 40.0698H24.2538L21.0447 68.1566Z" fill="white"/>
<path d="M55.1683 38.8007H52.3715L51.2524 33.3168H54.0492L55.1683 38.8007Z" fill="#263238"/>
<path d="M58.8792 37.6708H46.7439C46.3411 37.6708 46.0314 37.3412 46.0561 36.9372L46.5197 29.2334C46.5444 28.8294 46.8921 28.4998 47.2949 28.4998H59.4302C59.833 28.4998 60.1427 28.8294 60.118 29.2334L59.6544 36.9372C59.6297 37.3412 59.282 37.6708 58.8792 37.6708Z" fill="#263238"/>
<path d="M58.6892 37.6708H46.5539C46.1511 37.6708 45.8414 37.3412 45.8661 36.9372L46.3297 29.2334C46.3544 28.8294 46.7021 28.4998 47.1049 28.4998H59.2402C59.643 28.4998 59.9527 28.8294 59.928 29.2334L59.4644 36.9372C59.4397 37.3412 59.092 37.6708 58.6892 37.6708Z" fill="#1D4898"/>
<path d="M46.5541 37.2897C46.4648 37.2897 46.385 37.2554 46.328 37.1945C46.2691 37.1335 46.2406 37.0496 46.2463 36.9601L46.7099 29.2562C46.7213 29.0524 46.9037 28.8809 47.107 28.8809H59.2423C59.3316 28.8809 59.4114 28.9152 59.4684 28.9761C59.5254 29.0371 59.5558 29.1209 59.5501 29.2105L59.0865 36.9144C59.0751 37.1182 58.8927 37.2897 58.6894 37.2897H46.5541Z" fill="white"/>
<path opacity="0.2" d="M51.8833 28.4998L52.6718 31.2074L55.0126 28.4998H51.8833Z" fill="black"/>
<path d="M33.0223 21.9296C33.0413 22.0764 33.1325 22.1869 33.2275 22.1793C33.3225 22.1716 33.3852 22.0459 33.3681 21.8992C33.351 21.7524 33.2579 21.6419 33.1629 21.6495C33.0679 21.6572 33.0052 21.7829 33.0223 21.9296Z" fill="#263238"/>
<path d="M33.1816 22.1431C33.1816 22.1431 33.5065 22.8595 33.839 23.2006C33.63 23.4121 33.2481 23.3264 33.2481 23.3264L33.1816 22.1431Z" fill="#A02724"/>
<path d="M32.5454 21.3656C32.5321 21.3656 32.517 21.3656 32.5037 21.3599C32.46 21.3427 32.4391 21.2913 32.4562 21.2475C32.6329 20.8092 33.0262 20.7368 33.0433 20.7349C33.087 20.7234 33.1344 20.7577 33.142 20.8054C33.1496 20.853 33.1193 20.8968 33.0718 20.9045C33.0547 20.9083 32.7545 20.9673 32.6158 21.3122C32.6044 21.3427 32.5758 21.3618 32.5454 21.3656Z" fill="#263238"/>
<path d="M28.7168 24.2238L29.8587 25.1004L31.4148 26.2951C31.3578 26.3561 31.2894 26.6533 31.2628 26.8648C31.2096 27.3031 31.1545 27.6365 32.1235 27.8957C32.3306 27.9509 32.5073 28.1148 32.5377 28.3282C32.5757 28.5874 32.418 28.9075 31.5212 29.0542C30.4819 29.2257 29.6459 28.938 28.9885 28.6198C28.6085 28.4368 28.599 28.2006 28.7681 27.8137C29.245 26.7162 29.0132 25.3138 28.7168 24.2219V24.2238Z" fill="#B55B52"/>
<path d="M27.4097 28.1663C27.7897 27.4194 27.9474 26.8477 27.9474 26.8477C27.9474 26.8477 30.8373 26.6896 31.7911 26.9754C32.7449 27.2612 33.3377 28.4998 33.3377 28.4998L27.4097 28.1663Z" fill="#1D4898"/>
<path d="M28.6163 30.3195C28.5441 30.5329 28.4662 30.7939 28.3921 31.0359L28.1793 31.7772C28.0444 32.2745 27.9171 32.7699 27.8145 33.2653C27.7081 33.7608 27.6245 34.2524 27.5694 34.7325C27.5143 35.2108 27.4915 35.6815 27.5276 36.0988C27.5409 36.3103 27.5751 36.497 27.615 36.6609C27.6264 36.699 27.6359 36.7409 27.6492 36.7771C27.6625 36.8114 27.6758 36.8438 27.6872 36.88V36.8857C27.6872 36.8857 27.693 36.8934 27.6853 36.88C27.6758 36.861 27.6644 36.8438 27.653 36.8267C27.6264 36.7886 27.6131 36.7714 27.5922 36.7466C27.5542 36.7047 27.5257 36.6819 27.5067 36.6685C27.4687 36.6418 27.463 36.6476 27.4706 36.6552C27.4934 36.6742 27.5637 36.7181 27.6492 36.7562C27.7347 36.7943 27.8354 36.8343 27.9438 36.8705C28.1585 36.941 28.3978 37.0096 28.641 37.0725C29.6233 37.3221 30.6911 37.5126 31.7342 37.7356L31.7 39.0561C31.1338 39.1323 30.5828 39.1761 30.0204 39.1952C29.458 39.2142 28.8937 39.2123 28.3104 39.1666C28.0178 39.1456 27.7214 39.1151 27.4117 39.0561C27.2559 39.0275 27.0944 38.9932 26.9234 38.9475C26.7524 38.8998 26.5681 38.8446 26.3515 38.736C26.2413 38.6788 26.1197 38.6121 25.9772 38.4978C25.9069 38.4406 25.829 38.3701 25.7492 38.2767C25.7074 38.2253 25.6713 38.1815 25.6276 38.1148C25.6067 38.0824 25.5878 38.05 25.5688 38.0176L25.544 37.9719L25.4129 37.7032C25.373 37.6136 25.3426 37.526 25.3065 37.4364C25.1811 37.0839 25.0956 36.7371 25.0481 36.4075C24.8676 35.0832 25.0082 33.9037 25.2058 32.7528C25.3122 32.1811 25.4376 31.619 25.5877 31.0664C25.6618 30.7901 25.7416 30.5157 25.829 30.2413C25.9164 29.9631 26.0038 29.7059 26.114 29.4067L28.6144 30.3195H28.6163Z" fill="#B55B52"/>
<path d="M26.8587 27.93C28.6561 27.4555 29.7201 28.9285 29.1121 31.3656C28.5041 33.8027 28.3008 33.8884 28.3008 33.8884L24.5977 33.2691C25.0537 30.8721 25.0195 28.4178 26.8587 27.93Z" fill="#1D4898"/>
<path d="M32.6593 37.2192L32.38 37.1945C31.5858 37.1945 31.4509 37.4136 30.9607 37.8671L30.7783 38.8694C32.0608 39.5287 32.7486 38.8065 32.7486 38.8065H33.9361L33.5181 37.8442C33.3661 37.4955 33.0374 37.2554 32.6574 37.2211L32.6593 37.2192Z" fill="#B55B52"/>
<path d="M28.2266 22.3298C28.5496 24.0657 28.6503 25.1003 29.6421 25.874C31.1317 27.0382 33.1837 25.9311 33.3851 24.1247C33.5656 22.4994 33.007 19.9327 31.2153 19.4773C29.4502 19.0295 27.9036 20.5939 28.2266 22.3298Z" fill="#B55B52"/>
<path d="M31.6563 22.9357C32.8913 22.8366 32.5303 21.5314 32.1484 21.257C32.7279 21.0379 33.1269 20.1175 32.5702 19.4811C32.897 18.6255 31.9641 17.5966 30.3244 17.749C29.1274 17.8614 28.9906 18.4941 28.9906 18.4941C28.9906 18.4941 27.5542 18.3435 26.9595 19.5306C26.4503 20.5482 27.0678 21.0912 27.0678 21.0912C27.0678 21.0912 25.9962 21.4037 26.2926 22.8119C26.6099 24.3248 27.7688 23.9742 27.7688 23.9742C27.7688 23.9742 27.5086 25.3595 29.0761 25.3805C30.4308 25.3976 30.4479 24.3801 30.4479 24.3801C30.4479 24.3801 32.2073 24.2067 31.662 22.9338L31.6563 22.9357Z" fill="#263238"/>
<path d="M30.7367 23.0368C30.8849 23.4407 31.187 23.7456 31.4872 23.9018C31.9394 24.1343 32.2852 23.6522 32.2054 23.1587C32.1332 22.7147 31.7475 22.145 31.2706 22.1164C30.8013 22.0897 30.5657 22.5756 30.7348 23.0368H30.7367Z" fill="#B55B52"/>
<path d="M49.1571 65.9748L50.8462 65.2869L49.653 61.2168L47.9639 61.9047L49.1571 65.9748Z" fill="#B55B52"/>
<path opacity="0.2" d="M48.5434 63.8768L50.2496 63.2499L49.653 61.2168L47.9639 61.9047L48.5434 63.8768Z" fill="black"/>
<path d="M50.6996 64.5972L48.7692 65.2717C48.6989 65.2965 48.6628 65.3632 48.6818 65.4337L49.1207 66.9981C49.1663 67.16 49.3677 67.2591 49.5273 67.2001C50.1961 66.9542 50.464 66.819 51.2905 66.4626C51.7978 66.2435 53.01 65.7119 53.6693 65.3232C54.3134 64.9421 53.9258 64.2923 53.6123 64.399C52.8694 64.6505 51.6515 64.8144 51.034 64.601C50.9219 64.5629 50.8041 64.5629 50.7015 64.5991L50.6996 64.5972Z" fill="#263238"/>
<path d="M35.591 42.4955C35.591 42.4955 48.3571 43.6483 48.6839 47.3316C49.3489 54.8258 50.3673 62.0514 50.3673 62.0514L47.77 63.0041C47.77 63.0041 44.5913 54.7706 44.6331 48.8979C40.9509 47.8556 31.2704 49.3857 29.6858 46.537C28.2874 44.0218 29.5148 42.2173 29.5148 42.2173L35.5891 42.4936L35.591 42.4955Z" fill="#263238"/>
<path d="M47.5817 63.5968L50.8155 62.5011L50.6749 61.0225L47.0288 62.202L47.5817 63.5968Z" fill="#1D4898"/>
<path d="M51.4123 64.6848C51.2527 64.7401 51.0665 64.7686 50.9335 64.7839C50.9164 64.7839 50.9012 64.7782 50.8917 64.7629C50.8841 64.7477 50.8841 64.7305 50.8936 64.7172C50.9354 64.66 51.3059 64.157 51.5453 64.1665C51.6004 64.1684 51.646 64.197 51.6783 64.2484C51.7296 64.3323 51.7391 64.4123 51.703 64.4847C51.6574 64.5762 51.5453 64.641 51.4123 64.6886V64.6848ZM51.0228 64.6867C51.3515 64.641 51.5738 64.5514 51.627 64.4447C51.6479 64.4009 51.6422 64.3494 51.6061 64.2904C51.589 64.2637 51.57 64.2504 51.5415 64.2484C51.4123 64.2427 51.1767 64.4885 51.0228 64.6848V64.6867Z" fill="#1D4898"/>
<path d="M50.9429 64.782C50.9429 64.782 50.9296 64.7858 50.9239 64.7839C50.9087 64.782 50.8973 64.7725 50.8916 64.7591C50.8821 64.7382 50.6712 64.2561 50.7871 64.0274C50.8175 63.9664 50.8688 63.9264 50.9372 63.9112C51.0189 63.894 51.0854 63.9188 51.1253 63.9817C51.2298 64.1551 51.0987 64.6048 50.9638 64.7667C50.9581 64.7725 50.9524 64.7763 50.9448 64.7801L50.9429 64.782ZM50.9353 64.0007C50.9011 64.0122 50.8783 64.0331 50.8612 64.0655C50.7928 64.2008 50.8764 64.4904 50.9391 64.6524C51.0455 64.4733 51.1196 64.1398 51.0512 64.0274C51.0379 64.0064 51.0151 63.9817 50.9543 63.995C50.9467 63.995 50.941 63.9988 50.9353 64.0007Z" fill="#1D4898"/>
<path d="M40.1167 67.1848L41.9236 67.099L42.2181 62.8231L40.4131 62.9089L40.1167 67.1848Z" fill="#B55B52"/>
<path d="M41.9656 66.7885L39.9212 66.7237C39.8471 66.7218 39.7882 66.7713 39.7825 66.8437L39.6324 68.4615C39.6172 68.6292 39.7692 68.793 39.9402 68.7968C40.6527 68.8064 40.9928 68.7759 41.8915 68.8045C42.4444 68.8216 43.5331 68.9036 44.2893 68.8083C45.0303 68.7149 44.9315 67.9642 44.6009 67.9356C43.82 67.8708 42.7731 67.3296 42.2734 66.9085C42.1822 66.8323 42.072 66.7904 41.9637 66.7866L41.9656 66.7885Z" fill="#263238"/>
<path d="M42.6002 67.1277C42.433 67.122 42.2468 67.0819 42.1176 67.0476C42.1005 67.0438 42.0891 67.0305 42.0872 67.0134C42.0853 66.9962 42.0929 66.981 42.1062 66.9714C42.1651 66.9333 42.6914 66.5961 42.9118 66.6913C42.9631 66.7123 42.9954 66.7561 43.0068 66.8152C43.0258 66.9124 43.0068 66.9886 42.946 67.0438C42.8719 67.1143 42.7427 67.1334 42.6021 67.1296L42.6002 67.1277ZM42.2354 66.9886C42.5584 67.0648 42.7978 67.061 42.8871 66.979C42.9232 66.9447 42.9346 66.8952 42.9213 66.8285C42.9156 66.798 42.9004 66.7771 42.8757 66.7675C42.7579 66.7161 42.4501 66.8609 42.2354 66.9886Z" fill="#1D4898"/>
<path d="M42.1269 67.0476C42.1269 67.0476 42.1136 67.0457 42.1079 67.0419C42.0946 67.0343 42.087 67.0209 42.087 67.0076C42.087 66.9847 42.0623 66.4588 42.2504 66.2873C42.3017 66.2416 42.3625 66.2225 42.4328 66.234C42.5164 66.2473 42.5696 66.2949 42.5829 66.3673C42.619 66.5674 42.3359 66.939 42.1516 67.0419C42.144 67.0457 42.1364 67.0476 42.1288 67.0476H42.1269ZM42.3986 66.3159C42.3625 66.3159 42.3321 66.3254 42.3055 66.3502C42.1934 66.4531 42.1687 66.7522 42.1687 66.9256C42.3302 66.7961 42.5202 66.5122 42.4974 66.3826C42.4936 66.3578 42.4803 66.3273 42.4176 66.3178C42.41 66.3178 42.4043 66.3178 42.3986 66.3178V66.3159Z" fill="#1D4898"/>
<path opacity="0.2" d="M40.4129 62.9108L42.2179 62.8251L42.0488 65.2698L40.2495 65.266L40.4129 62.9108Z" fill="black"/>
<path d="M31.3501 42.3012C31.3501 42.3012 45.1061 44.4086 44.8876 47.585C44.4943 53.3034 42.5829 64.4733 42.5829 64.4733L39.8735 64.5114C39.8735 64.5114 39.2332 53.0519 40.2478 48.875C36.8658 48.875 27.3202 48.7569 26.0168 47.0115C24.5785 45.0851 26.0586 42.0573 26.0586 42.0573L31.3501 42.2992V42.3012Z" fill="#263238"/>
<path d="M39.5542 64.7248L42.8336 64.6752L42.9951 62.9355L39.3965 63.0785L39.5542 64.7248Z" fill="#1D4898"/>
<path d="M33.7724 27.7357C32.6647 27.5204 27.6696 27.5813 27.6696 27.5813C26.6379 27.5547 25.7506 28.3207 25.6347 29.3496C25.4599 30.895 26.4365 34.3477 26.4707 36.1103C26.5125 38.273 26.1002 39.1495 26.0603 42.0592L35.5907 42.4936C35.5907 36.6381 35.338 31.7905 35.1062 29.4659C35.0264 28.6579 34.8801 27.951 33.7724 27.7357Z" fill="#1D4898"/>
<path opacity="0.3" d="M33.7724 27.7357C32.6647 27.5204 27.6696 27.5813 27.6696 27.5813C26.6379 27.5547 25.7506 28.3207 25.6347 29.3496C25.4599 30.895 26.4365 34.3477 26.4707 36.1103C26.5125 38.273 26.1002 39.1495 26.0603 42.0592L35.5907 42.4936C35.5907 36.6381 35.338 31.7905 35.1062 29.4659C35.0264 28.6579 34.8801 27.951 33.7724 27.7357Z" fill="white"/>
<path d="M35.0779 29.5822C35.3762 30.6111 35.6764 31.6667 35.9861 32.7014C36.2958 33.738 36.6112 34.7727 36.9703 35.754C37.0577 36.0036 37.1527 36.2361 37.2439 36.4762L37.3902 36.8134L37.4092 36.8554L37.4187 36.8763L37.4225 36.8878V36.8935L37.4168 36.8801C37.3731 36.802 37.3256 36.7506 37.2952 36.7201C37.2287 36.6572 37.204 36.6515 37.2002 36.6534C37.2002 36.661 37.2629 36.7048 37.3427 36.7429C37.4225 36.783 37.5232 36.8211 37.6296 36.8592C37.8443 36.9335 38.0856 37.0002 38.3307 37.0669C39.3244 37.3203 40.4093 37.5147 41.4657 37.7414L41.4315 39.0619C40.8577 39.14 40.2991 39.1839 39.7272 39.201C39.1572 39.2201 38.5834 39.2143 37.9925 39.1686C37.6961 39.1457 37.394 39.1114 37.0748 39.0505C36.9152 39.02 36.7499 38.9838 36.5713 38.9304C36.3927 38.8771 36.2008 38.8123 35.9633 38.6789C35.8417 38.6065 35.7049 38.5207 35.5453 38.3569C35.4674 38.2768 35.38 38.1682 35.3021 38.031L35.2375 37.911L35.0228 37.5032C34.8955 37.2365 34.7606 36.9678 34.6485 36.7029C34.4129 36.1694 34.2096 35.6397 34.0044 35.108C33.8125 34.5745 33.6206 34.0429 33.4458 33.5093C33.0943 32.4385 32.777 31.3752 32.5015 30.2738L35.0722 29.5898L35.0779 29.5822Z" fill="#B55B52"/>
<path d="M32.3705 28.5208C33.6739 27.1927 35.3402 27.9167 36.0565 30.3234C36.7728 32.7319 36.6417 32.9072 36.6417 32.9072L33.14 34.2696C32.3135 31.9754 31.0348 29.8813 32.3686 28.5208H32.3705Z" fill="#1D4898"/>
<path d="M42.3913 37.2192L42.112 37.1945C41.3178 37.1945 41.1829 37.4136 40.6927 37.8671L40.5103 38.8694C41.7928 39.5287 42.4806 38.8065 42.4806 38.8065H43.6681L43.2501 37.8442C43.0981 37.4955 42.7694 37.2554 42.3894 37.2211L42.3913 37.2192Z" fill="#B55B52"/>
<path d="M26.4765 49.5724H38.6517C38.9193 49.5724 39.1362 49.3548 39.1362 49.0865V48.3014C39.1362 48.0331 38.9193 47.8155 38.6517 47.8155H26.4765C26.209 47.8155 25.992 48.0331 25.992 48.3014V49.0865C25.992 49.3548 26.209 49.5724 26.4765 49.5724Z" fill="#1D4898"/>
<path d="M26.5318 69.134H25.9922L26.6135 49.5724H27.3602L26.5318 69.134Z" fill="#1D4898"/>
<path opacity="0.4" d="M26.5318 69.134H25.9922L26.6135 49.5724H27.3602L26.5318 69.134Z" fill="white"/>
<path d="M31.4945 69.134H32.0341L31.4128 49.5724H30.668L31.4945 69.134Z" fill="#1D4898"/>
<path opacity="0.4" d="M31.4945 69.134H32.0341L31.4128 49.5724H30.668L31.4945 69.134Z" fill="white"/>
<path d="M33.6338 69.134H33.0942L33.7155 49.5724H34.4622L33.6338 69.134Z" fill="#1D4898"/>
<path opacity="0.4" d="M33.6338 69.134H33.0942L33.7155 49.5724H34.4622L33.6338 69.134Z" fill="white"/>
<path d="M38.597 69.134H39.1366L38.5153 49.5724H37.7705L38.597 69.134Z" fill="#1D4898"/>
<path opacity="0.4" d="M38.597 69.134H39.1366L38.5153 49.5724H37.7705L38.597 69.134Z" fill="white"/>
<g opacity="0.3">
<path d="M26.6135 49.5724H27.3602L27.3241 50.4032H26.5869L26.6135 49.5724Z" fill="#1D4898"/>
<path d="M31.4394 50.4032H30.7022L30.668 49.5724H31.4128L31.4394 50.4032Z" fill="#1D4898"/>
<path d="M34.4604 49.5724L34.4262 50.4032H33.689L33.7156 49.5724H34.4604Z" fill="#1D4898"/>
<path d="M38.5438 50.4032H37.8047L37.7705 49.5724H38.5172L38.5438 50.4032Z" fill="#1D4898"/>
</g>
<path d="M74.7104 25.6625H44.2857C43.2768 25.6625 42.5016 24.8355 42.5624 23.8237L43.7233 4.50785C43.7841 3.49604 44.66 2.66907 45.667 2.66907H76.0917C77.1006 2.66907 77.8758 3.49604 77.815 4.50785L76.6541 23.8237C76.5933 24.8355 75.7174 25.6625 74.7104 25.6625Z" fill="#1D4898"/>
<path d="M48.3574 21.5771L51.1637 31.2074L59.4895 21.5771H48.3574Z" fill="#1D4898"/>
<path opacity="0.1" d="M73.2339 17.89H56.1795C55.6133 17.89 55.1801 17.427 55.2143 16.8591L55.866 6.03221C55.9002 5.46437 56.3904 5.00134 56.9566 5.00134H74.011C74.5772 5.00134 75.0104 5.46437 74.9762 6.03221L74.3245 16.8591C74.2903 17.427 73.8001 17.89 73.2339 17.89Z" fill="white"/>
<path opacity="0.1" d="M64.1099 22.5604H47.0555C46.4893 22.5604 46.0561 22.0974 46.0903 21.5295L46.742 10.7026C46.7762 10.1348 47.2664 9.67175 47.8326 9.67175H64.887C65.4532 9.67175 65.8864 10.1348 65.8522 10.7026L65.2005 21.5295C65.1663 22.0974 64.6761 22.5604 64.1099 22.5604Z" fill="white"/>
<g opacity="0.5">
<path d="M46.8275 4.34974C46.8047 4.66224 46.5615 4.91567 46.2822 4.91567C46.0029 4.91567 45.7958 4.66224 45.8186 4.34974C45.8414 4.03724 46.0846 3.78381 46.3639 3.78381C46.6432 3.78381 46.8503 4.03724 46.8275 4.34974Z" fill="white"/>
<path d="M48.6952 4.34974C48.6724 4.66224 48.4292 4.91567 48.1499 4.91567C47.8706 4.91567 47.6635 4.66224 47.6863 4.34974C47.7091 4.03724 47.9523 3.78381 48.2316 3.78381C48.5109 3.78381 48.718 4.03724 48.6952 4.34974Z" fill="white"/>
<path d="M50.5609 4.34974C50.5381 4.66224 50.2949 4.91567 50.0156 4.91567C49.7363 4.91567 49.5292 4.66224 49.552 4.34974C49.5748 4.03724 49.818 3.78381 50.0973 3.78381C50.3766 3.78381 50.5837 4.03724 50.5609 4.34974Z" fill="white"/>
</g>
<path opacity="0.3" d="M74.4822 25.4814H44.0575C43.5578 25.4814 43.0961 25.2852 42.7617 24.927C42.4254 24.5687 42.2563 24.0943 42.2867 23.5912L43.4476 4.27539C43.5103 3.2369 44.4033 2.39087 45.4388 2.39087H75.8635C76.3632 2.39087 76.8249 2.58713 77.1593 2.94536C77.4956 3.30359 77.6647 3.77806 77.6343 4.2811L76.4734 23.5969C76.4107 24.6354 75.5177 25.4814 74.4822 25.4814ZM45.4407 2.48805C44.4546 2.48805 43.6034 3.29216 43.5426 4.28301L42.3817 23.5988C42.3532 24.0752 42.5128 24.5249 42.8301 24.8641C43.1474 25.2013 43.5825 25.3881 44.0575 25.3881H74.4822C75.4683 25.3881 76.3195 24.584 76.3803 23.5931L77.5412 4.27729C77.5697 3.80092 77.4101 3.35123 77.0928 3.01205C76.7755 2.67479 76.3404 2.48805 75.8654 2.48805H45.4407Z" fill="#263238"/>
<path d="M58.0075 14.1915C57.8783 14.4678 57.7605 14.7002 57.6294 14.9479C57.5021 15.1918 57.3634 15.43 57.2285 15.6682C56.9492 16.1427 56.6604 16.6114 56.345 17.0668C56.1892 17.2955 56.0258 17.5222 55.8624 17.7471C55.6895 17.9681 55.5261 18.193 55.3418 18.4083C54.9941 18.8484 54.5951 19.2658 54.1809 19.6735C54.0764 19.7745 53.9605 19.8717 53.8522 19.9708C53.742 20.0699 53.6337 20.1689 53.5064 20.2585L53.1416 20.5348C53.1416 20.5348 53.077 20.5824 53.0295 20.611C52.9801 20.6434 52.9288 20.6701 52.8756 20.6968C52.7711 20.7482 52.659 20.7863 52.5469 20.813C52.3227 20.8644 52.0909 20.8644 51.8705 20.8168C51.6501 20.7692 51.4373 20.672 51.2549 20.5291C51.1637 20.4586 51.082 20.3766 51.0098 20.289L50.9585 20.2223L50.9338 20.188L50.9243 20.1728L50.8882 20.1118L50.7514 19.8641C50.7115 19.784 50.6811 19.7078 50.6469 19.6297C50.5139 19.3191 50.4303 19.0314 50.3543 18.7436C50.2137 18.172 50.132 17.6194 50.0769 17.0687C50.0237 16.5161 49.9952 15.9788 50.0047 15.4148C50.0104 15.0527 50.3106 14.7631 50.6716 14.7707C50.9661 14.7764 51.2131 14.9765 51.2891 15.2471L51.2948 15.27C51.5703 16.2437 51.8572 17.2574 52.2277 18.1225C52.3227 18.3321 52.4177 18.5417 52.5222 18.7017C52.5469 18.7398 52.5716 18.7856 52.5982 18.8199C52.6229 18.8485 52.6476 18.877 52.6704 18.9075L52.6875 18.9304L52.6913 18.9361L52.6818 18.9209C52.6761 18.9113 52.6685 18.9018 52.6609 18.8923C52.6305 18.8542 52.5963 18.818 52.5583 18.7875C52.4804 18.7246 52.3911 18.6808 52.2999 18.6579C52.2068 18.635 52.1099 18.6331 52.013 18.6541C51.9636 18.6636 51.9161 18.6808 51.8686 18.7017C51.8439 18.7113 51.823 18.7246 51.8002 18.7379C51.7812 18.7475 51.7451 18.7779 51.7679 18.757L52.0054 18.5245C52.0852 18.4521 52.1631 18.3645 52.241 18.2806C52.3189 18.1949 52.3987 18.1148 52.4747 18.0253C53.0827 17.3069 53.6432 16.4914 54.1676 15.6415C54.4279 15.2166 54.6844 14.7841 54.9333 14.3458L55.3 13.6865L55.6477 13.0406L55.6648 13.0063C56.0087 12.3679 56.8048 12.1297 57.4413 12.4746C58.055 12.8062 58.2963 13.5627 58.0056 14.1896L58.0075 14.1915Z" fill="#263238"/>
<path d="M50.1835 15.3367L49.2563 14.807L50.2519 13.7856C50.2519 13.7856 50.668 14.0829 51.0594 14.5154C51.3064 14.7879 51.2323 15.2186 50.9074 15.371C50.6775 15.4796 50.4058 15.4663 50.1816 15.3367H50.1835Z" fill="#FFC3BD"/>
<path d="M49.0471 13.7131L49.5506 13.353C49.6874 13.2558 49.8774 13.2844 49.9781 13.4178L50.2536 13.7855L49.258 14.8069L48.9445 14.0904C48.8856 13.9551 48.9293 13.7989 49.0471 13.7131Z" fill="#FFC3BD"/>
<path d="M56.0144 13.3378C56.1626 12.8309 56.5939 12.4517 57.1126 12.3564C57.5192 12.2859 57.7092 12.2231 58.2317 12.1849C59.1304 12.1202 60.6086 12.1792 61.6308 12.2478C62.2236 12.2878 62.8297 12.3717 63.3123 12.4498H63.3294C63.8614 12.5413 64.2262 13.05 64.135 13.5778C63.8975 14.9536 63.2002 17.3469 63.1242 19.6049C63.0254 22.5698 63.0691 24.2771 63.0178 24.9917L55.4083 24.8449C54.8782 17.5965 55.5375 14.9784 56.0163 13.3397L56.0144 13.3378Z" fill="white"/>
<path d="M63.5309 12.3374H63.5119C63.0027 12.2517 62.3662 12.1621 61.7392 12.1202C61.6309 12.1126 61.5169 12.1069 61.401 12.0992C61.0685 13.4807 59.0868 15.7997 58.4864 19.3191C58.2546 16.3789 58.076 13.3054 58.4161 12.105C58.2109 12.1011 57.221 12.1697 56.8087 12.2422C56.2634 12.3431 55.8017 12.7795 55.6041 13.3664C55.1367 14.746 54.2456 17.8366 54.7947 25.4357H63.2516C63.3086 24.6811 63.1091 23.0729 63.415 20.611C63.7095 18.2234 64.1332 14.9784 64.3821 13.5264C64.4771 12.9681 64.0933 12.4308 63.5328 12.3374H63.5309Z" fill="#263238"/>
<path opacity="0.2" d="M58.302 25.0412C58.2754 25.0412 58.2545 25.0203 58.2507 24.9936C58.0721 22.8499 58.4065 19.7726 58.4084 19.7402C58.4122 19.7116 58.4369 19.6926 58.4635 19.6945C58.492 19.6983 58.511 19.723 58.5091 19.7497C58.5053 19.7802 58.1728 22.8499 58.3514 24.9822C58.3533 25.0107 58.3324 25.0355 58.3058 25.0374H58.302V25.0412Z" fill="white"/>
<path opacity="0.3" d="M63.2344 15.3538C62.9209 16.7791 63.0881 18.7531 63.4206 20.5538C63.6714 18.5321 64.0115 15.9083 64.2585 14.2829C63.9127 14.0504 63.4814 14.2143 63.2325 15.3538H63.2344Z" fill="black"/>
<path d="M58.3932 12.1755C59.3793 11.9583 59.5503 11.3504 59.48 10.6759C59.4648 10.512 59.4363 10.3405 59.3983 10.1729L60.6314 9.16486L61.5358 8.42554C61.2907 9.51928 61.0171 11.5124 61.7619 12.2594C61.7619 12.2594 61.1558 13.2597 59.4629 13.1378C58.0341 13.0349 58.3932 12.1774 58.3932 12.1774V12.1755Z" fill="#FFC3BD"/>
<path d="M59.8923 12.8824L59.6187 13.1435L60.4927 13.4731L60.3787 13.1397L59.8923 12.8824Z" fill="#E0E0E0"/>
<path d="M60.5614 13.938C60.5614 13.938 60.2194 13.0653 59.8926 12.8824C61.0307 12.5756 61.5855 11.943 61.5855 11.943L62.1042 12.1488C62.1042 12.1488 62.2676 13.1492 60.5614 13.9361V13.938Z" fill="#F5F5F5"/>
<path d="M59.4136 12.8157L59.6188 13.1434L58.6992 13.2234L58.8835 12.9319L59.4136 12.8157Z" fill="#E0E0E0"/>
<path d="M58.2374 13.6922C58.2374 13.6922 58.722 13.1453 59.4136 12.8157C58.9139 12.667 58.8834 11.9753 58.8834 11.9753L58.3989 12.0687C58.3989 12.0687 57.5097 12.9357 58.2374 13.6922Z" fill="#F5F5F5"/>
<path opacity="0.2" d="M59.3984 10.171C59.4364 10.3386 59.4649 10.5101 59.4801 10.674C59.9418 10.5902 60.5555 10.1081 60.6182 9.63552C60.641 9.45831 60.6448 9.28682 60.6315 9.16296L59.3984 10.171Z" fill="black"/>
<path d="M57.9031 5.18232C57.4623 5.72728 57.5041 7.68992 58.437 7.71279C59.3699 7.73566 58.7049 4.19147 57.9031 5.18232Z" fill="#263238"/>
<path d="M61.9213 6.6134C61.8282 8.10158 61.8472 8.97619 61.0986 9.74601C59.9719 10.9045 58.1479 10.2376 57.7983 8.75706C57.4829 7.42323 57.69 5.21478 59.1378 4.61074C60.5647 4.01623 62.0144 5.12522 61.9194 6.6134H61.9213Z" fill="#FFC3BD"/>
<path d="M61.192 5.37286C60.2591 6.30274 61.4713 6.98109 60.9982 7.48223C61.8779 7.94335 61.5549 8.28253 61.5549 8.28253C61.5549 8.28253 61.4067 8.63885 61.5644 9.06758C62.5543 8.81034 64.3954 5.50815 62.3871 4.99939C61.1768 5.53864 61.192 5.37286 61.192 5.37286Z" fill="#263238"/>
<path d="M61.5737 6.03983C60.6902 6.17703 59.5787 5.75401 58.889 5.39578C58.1993 5.03755 58.0986 5.714 58.3513 5.91979C57.9086 5.93503 57.3481 5.58252 57.4868 4.79937C57.6141 4.08481 58.547 3.41027 59.877 4.01431C60.8175 4.44114 61.9765 3.87902 62.4268 4.37254C62.879 4.86415 62.1627 5.94837 61.5718 6.03983H61.5737Z" fill="#263238"/>
<path d="M62.1763 5.07191C62.7691 4.99188 62.7957 4.6184 62.6285 3.95911C63.2707 4.87183 63.0142 5.15194 62.6285 5.37297C62.2086 5.23006 62.1763 5.07191 62.1763 5.07191Z" fill="#263238"/>
<path d="M62.3207 7.75282C62.1763 8.07485 61.9179 8.30732 61.6747 8.41784C61.308 8.58361 61.1218 8.24444 61.2206 7.84619C61.3099 7.48796 61.6082 6.96777 61.9787 6.97158C62.3435 6.97539 62.4879 7.38507 62.3226 7.75282H62.3207Z" fill="#FFC3BD"/>
<path d="M59.6053 7.06305C59.6053 7.185 59.5407 7.28218 59.4628 7.28408C59.3849 7.28408 59.3203 7.18691 59.3203 7.06686C59.3203 6.94491 59.3849 6.84773 59.4628 6.84583C59.5407 6.84583 59.6053 6.943 59.6053 7.06305Z" fill="#263238"/>
<path d="M58.245 7.07452C58.245 7.19647 58.1804 7.29365 58.1025 7.29556C58.0246 7.29556 57.96 7.19838 57.96 7.07834C57.96 6.95638 58.0246 6.85921 58.1025 6.8573C58.1804 6.8573 58.245 6.95448 58.245 7.07452Z" fill="#263238"/>
<path d="M58.7485 7.11646C58.7485 7.11646 58.473 7.81767 58.1709 8.15685C58.3837 8.35502 58.7466 8.25974 58.7466 8.25974V7.11646H58.7485Z" fill="#ED847E"/>
<path d="M59.2368 8.58173C59.7061 8.52076 59.9246 8.19301 59.9341 8.17777C59.9455 8.16062 59.9398 8.13966 59.9227 8.12823C59.9056 8.1168 59.8847 8.12251 59.8733 8.13776C59.8714 8.14157 59.6225 8.51695 59.0943 8.52076C59.0753 8.52076 59.0601 8.536 59.0601 8.55696C59.0601 8.57602 59.0772 8.59316 59.0962 8.59126C59.1456 8.59126 59.1912 8.58745 59.2368 8.58173Z" fill="#263238"/>
<path d="M60.2649 6.58099C60.2763 6.58099 60.2877 6.57527 60.2972 6.56765C60.3276 6.54479 60.3333 6.49905 60.3105 6.46857C60.0749 6.15607 59.7462 6.17703 59.7329 6.17893C59.6968 6.17893 59.6664 6.21514 59.6702 6.25515C59.674 6.29517 59.7082 6.32375 59.7481 6.31994C59.7614 6.31994 60.0141 6.3066 60.1984 6.55241C60.2155 6.57337 60.2402 6.5848 60.2649 6.58099Z" fill="#263238"/>
<path d="M57.6939 6.63813C57.7167 6.63432 57.7357 6.62098 57.7471 6.60002C57.8858 6.31229 58.1462 6.27418 58.1481 6.27418C58.1861 6.26846 58.2127 6.23417 58.207 6.19415C58.2013 6.15604 58.1651 6.12746 58.1271 6.13318C58.1138 6.13318 57.7909 6.18272 57.6199 6.53523C57.6028 6.56953 57.6179 6.61336 57.6521 6.63051C57.6654 6.63813 57.6806 6.64003 57.6939 6.63813Z" fill="#263238"/>
<path d="M64.6024 13.1968C64.8323 13.6865 65.028 14.1458 65.2161 14.6278C65.4061 15.1042 65.5771 15.5901 65.7443 16.076C66.0673 17.0554 66.3485 18.0539 66.548 19.1C66.5917 19.3649 66.6411 19.624 66.6734 19.8965L66.7 20.0985L66.7133 20.1995L66.719 20.2509L66.7247 20.3214C66.7399 20.51 66.7437 20.7063 66.7228 20.9121C66.6829 21.3218 66.5347 21.76 66.2915 22.1183C66.0521 22.4784 65.7367 22.7433 65.4289 22.9281C65.1192 23.1148 64.8114 23.2349 64.5131 23.3149C64.2148 23.3968 63.9241 23.4464 63.6391 23.4712C63.3541 23.4978 63.0767 23.5036 62.8012 23.4921C62.5219 23.4807 62.2654 23.454 61.969 23.4045C61.6137 23.3454 61.3724 23.0062 61.4332 22.6499C61.4788 22.3793 61.684 22.1735 61.9367 22.1183L62.0051 22.103C62.2027 22.0592 62.4421 22.0058 62.6568 21.9487C62.8753 21.8896 63.0862 21.8248 63.2876 21.7524C63.6866 21.6076 64.0495 21.4152 64.2471 21.2189C64.3459 21.1217 64.3934 21.0322 64.4124 20.9674C64.4295 20.9007 64.4238 20.8492 64.4143 20.7635C64.4105 20.7216 64.401 20.6701 64.3858 20.611L64.3174 20.3004C64.2737 20.0813 64.211 19.8584 64.154 19.6354C64.0343 19.1896 63.9013 18.7399 63.7493 18.2921C63.6068 17.8424 63.4415 17.3946 63.2781 16.9468C63.1128 16.499 62.938 16.0512 62.7613 15.6054C62.5827 15.1652 62.3984 14.706 62.2217 14.2887L62.2141 14.2696C61.931 13.6008 62.2426 12.8291 62.9076 12.5452C63.5574 12.2689 64.306 12.5604 64.6043 13.193L64.6024 13.1968Z" fill="#263238"/>
<path d="M61.357 22.6632L60.521 23.0633L61.9688 23.5778C61.9688 23.5778 62.934 23.2691 62.4647 22.7318L62.2044 22.6498C61.7864 22.5183 61.5812 22.5336 61.357 22.6613V22.6632Z" fill="#FFC3BD"/>
<path d="M60.6313 24.0943L61.2678 24.2162C61.454 24.2524 61.6421 24.1629 61.7352 23.9971L61.967 23.5798L60.5192 23.0653L60.3197 23.4636C60.1886 23.7265 60.3425 24.0428 60.6313 24.0962V24.0943Z" fill="#FFC3BD"/>
</g>
<defs>
<clipPath id="clip0_41_5445">
<rect width="95" height="71" fill="white" transform="translate(0.807617 0.193848)"/>
</clipPath>
</defs>
</svg>
