<svg width="82" height="70" viewBox="0 0 82 70" fill="none" xmlns="http://www.w3.org/2000/svg">
<g clip-path="url(#clip0_41_5609)">
<path d="M52.8528 2.45788L54.2037 1.86262L54.5109 2.80057L54.9575 2.65309L54.4888 1.22013L53.1461 1.81201L52.8035 0.701987L51.5676 1.22013L51.0601 0.128418L50.6336 0.328926L51.3327 1.83129L52.5078 1.33918L52.8528 2.45788Z" fill="#7473E8"/>
<path d="M15.3079 37.8929V36.9231C15.3079 33.4219 12.4863 30.584 9.00526 30.584C5.28128 30.584 2.26271 27.5479 2.26271 23.8024C2.26271 20.0568 5.28128 17.0208 9.00526 17.0208H56.3377C59.6831 17.0208 62.3955 19.7488 62.3955 23.1136C62.3955 27.1459 65.6455 30.4153 69.6551 30.4153H70.8742C74.9839 30.4153 78.3159 33.7661 78.3159 37.9001C78.3159 42.0337 74.9844 45.3849 70.8742 45.3849C66.8651 45.3849 63.6146 48.6538 63.6146 52.6866V54.0786C63.6146 57.4434 60.9022 60.1715 57.5568 60.1715H8.04826C3.93852 60.1715 0.606544 56.8202 0.606544 52.6866V52.6794C0.606544 48.5497 3.93517 45.2018 8.04108 45.2018C12.0545 45.2018 15.3079 41.9296 15.3079 37.8929Z" fill="#E4EAF8"/>
<path d="M38.2514 14.5948C39.1461 14.5948 39.8716 15.3246 39.8716 16.2245V18.6653H36.6311V16.2245C36.6311 15.4142 37.1381 14.5948 37.9183 14.5948H38.2514ZM38.2514 16.6611C38.605 16.6611 38.8916 16.3729 38.8916 16.0172C38.8916 15.6615 38.605 15.3733 38.2514 15.3733C37.8977 15.3733 37.6111 15.6615 37.6111 16.0172C37.6111 16.3729 37.8977 16.6611 38.2514 16.6611Z" fill="#5858C6"/>
<path d="M11.0288 8.57288H20.9965C23.0177 8.57288 24.6562 10.2209 24.6562 12.2538V12.2543C24.6562 14.2873 23.0177 15.9353 20.9965 15.9353H11.0288C9.00761 15.9353 7.36908 14.2873 7.36908 12.2543V12.2538C7.36908 10.2209 9.00761 8.57288 11.0288 8.57288Z" fill="#E4EAF8"/>
<path d="M25.9418 11.7671C27.7738 11.3844 29.5671 12.5677 29.9476 14.4103C30.3281 16.253 29.1516 18.0566 27.3196 18.4393C25.4875 18.822 23.6943 17.6387 23.3138 15.796C22.9333 13.9534 24.1098 12.1498 25.9418 11.7671Z" fill="#E4EAF8"/>
<path d="M9.15474 17.0878C9.11784 15.0012 10.7702 13.28 12.8447 13.2429C14.9192 13.2058 16.6305 14.8677 16.6674 16.9542C16.7038 19.0408 15.0519 20.762 12.9774 20.7991C10.9029 20.8362 9.19164 19.1743 9.15474 17.0878Z" fill="#E4EAF8"/>
<path d="M52.8941 69.579H62.8612C64.8826 69.579 66.521 67.931 66.521 65.898C66.521 63.865 64.8826 62.217 62.8612 62.217H52.8941C50.8727 62.217 49.2343 63.865 49.2343 65.898C49.2343 67.931 50.8727 69.579 52.8941 69.579Z" fill="#E4EAF8"/>
<path d="M76.9746 64.9514C76.9746 64.9514 77.1323 66.5386 77.5377 66.8302C77.9431 67.1218 78.4837 68.2 78.2134 68.7828C78.129 68.965 77.9599 69.07 77.7677 69.1288C77.1979 69.3028 76.5917 69.0098 76.3492 68.4704C76.2136 68.1692 76.0948 67.7667 76.0708 67.2602C76.01 65.9703 75.6045 65.3148 75.6045 65.3148L76.9741 64.9514H76.9746Z" fill="#F7A491"/>
<path d="M70.7431 65.6011C70.7431 65.6011 70.6151 67.2027 70.7191 67.7233C70.7747 68.0019 71.0843 68.5759 70.9419 68.8381C70.8001 69.1003 70.6376 69.1659 70.6376 69.1659L66.9592 69.2247C66.7589 69.2281 66.8911 69.1003 67.0526 68.9827C67.3172 68.7904 67.5304 68.6632 68.3753 68.2593C68.4304 68.2327 68.6307 68.1065 68.7031 68.0631C68.8866 67.9522 69.0706 67.7777 69.2292 67.6033C69.4933 67.3121 69.5163 65.9018 69.5163 65.9018L70.7421 65.6011H70.7431Z" fill="#F7A491"/>
<path d="M67.8681 44.3106C67.8681 44.3106 67.4047 46.9114 67.709 48.6162C68.0133 50.321 69.473 66.1245 69.473 66.1245L71.0952 66.2151C71.0952 66.2151 71.4354 59.6138 71.3745 58.6956C71.3137 57.7774 70.8326 56.2413 70.8326 56.2413L70.9941 50.9114L68.9468 43.9095L67.8686 44.311L67.8681 44.3106Z" fill="#271651"/>
<path d="M71.7477 42.8834C71.7477 42.8834 73.7791 45.4177 74.0829 46.9914C74.3872 48.5651 73.9938 53.6496 74.5789 55.7116C74.8957 56.8279 76.0961 58.552 76.2782 59.9946C76.4608 61.4372 77.1763 65.216 77.1763 65.216L75.5546 65.5336L71.8977 56.9359L69.8175 48.9806L68.0731 43.1731L71.7468 42.8829L71.7477 42.8834Z" fill="#312066"/>
<path d="M76.2389 68.1865C77.1226 68.346 77.7106 67.8346 78.0163 67.4519C78.2411 67.8857 78.3786 68.4265 78.2133 68.7832C78.0676 69.0969 77.6717 69.1827 77.3368 69.1948C76.9826 69.2078 76.6515 69.0242 76.4761 68.7195C76.3942 68.5773 76.3093 68.4 76.2384 68.1869L76.2389 68.1865Z" fill="#271651"/>
<path d="M68.704 68.0627C69.6768 68.3094 70.3961 68.1417 70.7982 67.9812C70.9017 68.2718 71.0392 68.6367 70.9664 68.8473C70.8773 69.1047 70.7498 69.1843 70.6377 69.1871C69.7492 69.2103 67.3828 69.2204 66.7052 69.2291C66.6103 69.23 66.5586 69.1211 66.6194 69.0488C66.7876 68.8502 68.6317 68.106 68.704 68.0622V68.0627Z" fill="#271651"/>
<path d="M67.5282 28.3643C67.8157 26.4802 69.5102 25.1254 71.2828 26.0397C71.6815 26.2455 72.2211 26.6624 72.4967 27.0181C73.2538 27.9956 73.4374 29.2069 74.2401 30.1467C74.9321 30.957 76.7789 30.8042 77.6415 31.4274C78.5041 32.0506 79.1089 33.1683 79.1089 34.5049C79.1089 36 78.7734 37.5867 77.6214 38.5319C76.4699 39.4771 74.8329 39.7128 73.401 39.3123C71.9691 38.9117 70.7404 37.9304 69.8562 36.7288C68.9721 35.5272 68.3467 34.2099 67.9058 32.7823C67.4141 31.1888 67.3423 29.5823 67.5282 28.3648V28.3643Z" fill="#271651"/>
<path d="M74.014 30.9199C74.014 30.9199 76.1901 27.0138 76.7192 26.1834C77.2487 25.3529 78.6274 22.0537 78.6767 21.9235C78.7261 21.7934 77.7269 20.2322 77.9498 20.1787C78.1726 20.1252 78.4194 21.002 78.6576 20.8974C78.8953 20.7928 79.5906 18.6821 79.7262 18.7867C79.9797 18.9824 79.3515 20.0958 79.4866 20.1662C79.6218 20.2365 80.0315 18.9414 80.297 18.9795C80.5625 19.0176 79.7919 20.1667 79.8662 20.2679C79.9404 20.3696 80.7402 19.287 80.8854 19.5174C80.964 19.6427 80.1498 20.4626 80.3061 20.5392C80.4623 20.6159 81.1869 20.0871 81.2635 20.2394C81.3402 20.3922 80.5936 20.6009 80.3703 21.0121C80.147 21.4232 79.767 21.6011 79.6088 22.3626C79.4512 23.1242 79.2149 25.8807 78.4065 27.2558C77.5976 28.6309 75.8192 31.6742 75.8192 31.6742L74.013 30.9199H74.014Z" fill="#F79C8D"/>
<path d="M67.889 35.5586L69.6333 36.5664C69.6333 36.5664 66.3229 40.9492 66.1326 41.1497L64.7396 39.9105L67.8894 35.5586H67.889Z" fill="#F48C7F"/>
<path d="M69.337 32.939C69.337 32.939 67.9832 33.1983 66.2959 37.4012L68.6158 38.6501L70.269 36.0681L69.337 32.939Z" fill="#BDCAE9"/>
<path d="M64.9898 33.2162C64.9898 33.2162 65.2956 33.1279 65.8007 33.5651C66.4246 34.1049 66.4601 38.251 66.2957 39.7004L66.1318 41.1497C66.1318 41.1497 64.8605 40.7005 64.5609 39.1442C64.2614 37.5878 64.1474 33.5405 64.1474 33.5405L64.9898 33.2162Z" fill="#F48C7F"/>
<path d="M71.5046 32.5094C71.5046 32.5094 73.2097 32.4005 73.8839 33.1384C74.5587 33.8764 72.3878 39.7142 72.2652 40.6536C72.1425 41.593 73.6836 45.0716 73.6836 45.0716C73.6836 45.0716 68.579 45.6726 67.4342 44.912C67.4342 44.912 67.6767 43.3325 67.6954 41.9184C67.7284 39.4058 67.5559 36.3393 67.634 35.9099C67.7567 35.239 68.8848 33.3144 69.1301 33.0459C69.3755 32.7774 71.5042 32.5094 71.5042 32.5094H71.5046Z" fill="white"/>
<path d="M70.9369 30.2229C70.9369 30.2229 70.9456 30.2735 70.9614 30.3593C71.0376 30.7709 71.3299 32.1359 71.5278 32.5109C71.7669 32.9644 70.7098 34.4109 69.6919 34.234C69.3891 34.1815 69.9478 32.9052 69.921 32.7697C69.8697 32.5109 69.7998 32.1581 69.7283 31.7956C69.6881 31.5913 69.6474 31.3845 69.609 31.1898C69.5002 30.6369 69.4116 30.1843 69.4116 30.1843L70.9364 30.2224L70.9369 30.2229Z" fill="#F7A491"/>
<path d="M70.9618 30.3588C70.946 30.273 70.9374 30.2224 70.9374 30.2224L69.4125 30.1843C69.4125 30.1843 69.5012 30.6364 69.61 31.1898C69.6478 31.383 69.6885 31.5893 69.7288 31.7922C69.9641 31.7575 70.2104 31.6423 70.4567 31.4259C70.7256 31.1898 70.9019 30.9059 71.0083 30.6027C70.9896 30.5058 70.9738 30.4224 70.9618 30.3588Z" fill="#F47458"/>
<path d="M69.9109 26.7438C69.9109 26.7438 70.6298 26.6605 71.0802 27.2456C71.5307 27.8303 72.0161 29.6392 70.8972 30.6224C69.7782 31.6057 68.6722 30.4928 68.5083 29.3124C68.3444 28.1325 68.2807 26.7014 69.9109 26.7438Z" fill="#F7A491"/>
<path d="M68.1774 29.2946C68.3111 29.5554 68.5354 29.6995 68.6782 29.6171C68.821 29.5347 68.8287 29.2561 68.6954 28.9958C68.5617 28.735 68.3375 28.5909 68.1947 28.6733C68.0518 28.7558 68.0442 29.0344 68.1774 29.2951V29.2946Z" fill="#F7A491"/>
<path d="M69.8305 26.5506C69.8305 26.5506 70.7909 28.2703 71.4776 28.3499C72.1643 28.4294 72.2549 29.3432 72.2549 29.3432C72.2549 29.3432 72.0095 27.2374 71.3295 26.8311C70.6495 26.4248 69.831 26.5501 69.831 26.5501L69.8305 26.5506Z" fill="#271651"/>
<path d="M71.2973 28.7822C71.2412 29.0878 71.3538 29.3678 71.5484 29.4078C71.7429 29.4478 71.9456 29.2329 72.0017 28.9273C72.0578 28.6217 71.9452 28.3417 71.7506 28.3017C71.556 28.2617 71.3533 28.4766 71.2973 28.7822Z" fill="#F7A491"/>
<path d="M74.6158 29.6542C74.6158 29.6542 72.2087 32.2521 71.8512 33.299C71.4933 34.3459 72.2001 35.8439 73.1763 35.9095C74.1524 35.975 76.3242 31.2982 76.3242 31.2982L74.6163 29.6542H74.6158Z" fill="white"/>
<path d="M62.7505 33.5651H64.4152C65.3478 33.5651 66.1035 34.3256 66.1035 35.2631V59.3183H61.0617V35.2631C61.0617 34.3252 61.8174 33.5651 62.75 33.5651H62.7505Z" fill="#5858C6"/>
<path d="M62.6049 33.5651H64.5615V59.3183H62.6049V33.5651Z" fill="#7473E8"/>
<path d="M64.2335 68.2646L63.6254 69.1481L63.0623 68.2646L62.3655 65.1466H64.8853L64.2335 68.2646Z" fill="#5858C6"/>
<path d="M64.8854 65.1466H62.3656L61.0622 59.3184H66.1035L64.8854 65.1466Z" fill="#FCCAA7"/>
<path d="M62.0465 33.5651H65.1192C65.6631 33.5651 66.1035 34.0085 66.1035 34.5551V38.0808H61.0617V34.5551C61.0617 34.008 61.5026 33.5651 62.046 33.5651H62.0465Z" fill="#1D4898"/>
<path d="M66.3627 39.1442H60.8029C60.778 39.1442 60.7578 39.1239 60.7578 39.0989V38.1262C60.7578 38.1012 60.778 38.0809 60.8029 38.0809H66.3627C66.3876 38.0809 66.4077 38.1012 66.4077 38.1262V39.0989C66.4077 39.1239 66.3876 39.1442 66.3627 39.1442Z" fill="#7473E8"/>
<path d="M13.9776 31.7369C13.9623 31.8242 13.8986 31.8955 13.8137 31.9201C13.3978 32.0411 12.8385 32.5814 12.5865 32.8889L13.2857 34.8361C13.6748 34.9108 14.4487 34.9672 14.8455 34.7932C14.9265 34.7576 15.0204 34.7715 15.088 34.8289L16.3248 35.8782C16.3924 35.9355 16.4216 36.0266 16.4005 36.1124C16.2966 36.5351 16.482 37.2923 16.621 37.6659L18.6476 38.0308C18.9068 37.729 19.342 37.0832 19.3904 36.6508C19.4004 36.5626 19.4594 36.4874 19.5423 36.4575L21.0643 35.9047C21.1472 35.8748 21.2401 35.8946 21.3039 35.9563C21.6158 36.258 22.3605 36.4754 22.7516 36.5409L24.079 34.9585C23.9486 34.5821 23.6103 33.8803 23.2619 33.6215C23.191 33.569 23.1556 33.4798 23.1714 33.3926L23.4565 31.7904C23.4718 31.7032 23.5356 31.6318 23.6204 31.6073C24.0363 31.4863 24.5956 30.946 24.8477 30.6385L24.1485 28.6912C23.7594 28.6165 22.9859 28.5601 22.5886 28.7346C22.5077 28.7703 22.4137 28.7563 22.3462 28.6989L21.1093 27.6496C21.0417 27.5923 21.0125 27.5012 21.0336 27.4154C21.1371 26.9927 20.9521 26.235 20.8132 25.8619L18.7866 25.4971C18.5273 25.7988 18.0922 26.4447 18.0438 26.877C18.0337 26.9652 17.9752 27.0404 17.8919 27.0703L16.3699 27.6231C16.287 27.653 16.194 27.6333 16.1303 27.572C15.8183 27.2703 15.0731 27.0529 14.6826 26.9874L13.3551 28.5702C13.4855 28.9467 13.8238 29.6485 14.1722 29.9073C14.2431 29.9598 14.2786 30.049 14.2628 30.1362L13.9776 31.7384V31.7369ZM17.1668 30.4486C17.8885 29.5877 19.168 29.4788 20.0239 30.2047C20.8798 30.9306 20.9881 32.217 20.2664 33.0778C19.5447 33.9387 18.2652 34.0481 17.4093 33.3217C16.5534 32.5958 16.4451 31.3094 17.1668 30.4486ZM16.1729 29.6056C17.358 28.1928 19.457 28.0135 20.862 29.205C22.2666 30.397 22.4449 32.5086 21.2603 33.9213C20.0752 35.334 17.9757 35.5133 16.5711 34.3218C15.1666 33.1299 14.9883 31.0188 16.1729 29.6056Z" fill="white"/>
<path d="M22.8513 12.0866C22.7842 12.1469 22.6888 12.1633 22.6054 12.1295C22.1967 11.9637 21.4112 12.0428 21.0169 12.1295L20.3598 14.1313C20.6248 14.4373 21.2095 14.9709 21.636 15.0827C21.7227 15.1054 21.7898 15.1757 21.808 15.2644L22.143 16.8868C22.1612 16.9755 22.1277 17.0666 22.0572 17.1225C21.7098 17.3958 21.3854 18.1192 21.2632 18.5063L22.6582 20.079C23.0545 20.0014 23.8059 19.759 24.1154 19.4428C24.1782 19.3782 24.2726 19.3556 24.3579 19.384L25.9221 19.9031C26.0074 19.9315 26.0697 20.0062 26.0821 20.0959C26.1435 20.535 26.6045 21.1799 26.8767 21.4792L28.9287 21.0507C29.06 20.6666 29.2272 19.891 29.1098 19.4635C29.0859 19.3763 29.1132 19.2828 29.1803 19.223L30.4094 18.1202C30.4765 18.06 30.5719 18.0436 30.6553 18.0773C31.0641 18.2431 31.8495 18.1641 32.2439 18.0773L32.9009 16.0756C32.6359 15.7695 32.0512 15.236 31.6247 15.1242C31.538 15.1015 31.4709 15.0311 31.4527 14.9424L31.1177 13.3201C31.0995 13.2319 31.1326 13.1403 31.2035 13.0844C31.5509 12.8111 31.8754 12.0876 31.9976 11.7006L30.6026 10.1278C30.2067 10.2054 29.4549 10.4479 29.1453 10.7636C29.0825 10.8282 28.9881 10.8508 28.9028 10.8224L27.3382 10.3033C27.2529 10.2748 27.1906 10.2001 27.1781 10.1105C27.1168 9.67139 26.6558 9.02697 26.3836 8.72717L24.3316 9.15615C24.2007 9.53981 24.033 10.3158 24.1504 10.7433C24.1744 10.8306 24.1471 10.9241 24.08 10.9839L22.8508 12.0866H22.8513ZM26.211 13.0709C27.3271 12.8376 28.4197 13.5586 28.6517 14.6812C28.8836 15.8038 28.1667 16.9027 27.0506 17.136C25.9345 17.3693 24.8419 16.6482 24.61 15.5257C24.3781 14.4031 25.095 13.3042 26.211 13.0709ZM25.9417 11.7671C27.7738 11.3844 29.567 12.5677 29.9475 14.4103C30.328 16.253 29.1515 18.0566 27.3195 18.4393C25.4874 18.822 23.6942 17.6387 23.3137 15.7961C22.9332 13.9534 24.1097 12.1498 25.9417 11.7671Z" fill="#5858C6"/>
<path d="M7.61469 15.3906C7.71436 15.3955 7.80781 15.3429 7.85621 15.2552L8.7418 13.6478C8.7902 13.56 8.78445 13.4521 8.7279 13.3696C8.44948 12.9657 8.34213 12.0919 8.33974 11.6417L10.3318 10.4372C10.7257 10.6507 11.4431 11.1559 11.6669 11.593C11.7124 11.6822 11.8049 11.7376 11.9046 11.7357L13.7314 11.7034C13.8311 11.7015 13.9211 11.6432 13.9638 11.5525C14.1723 11.1081 14.8714 10.5775 15.2577 10.35L17.2905 11.4827C17.3039 11.9328 17.2272 12.8096 16.9632 13.2236C16.9095 13.308 16.9076 13.4159 16.9589 13.5017L17.9001 15.0764C17.9513 15.1622 18.0472 15.2113 18.1464 15.2031C18.6337 15.1627 19.4398 15.5063 19.8284 15.729L19.8696 18.0662C19.4887 18.3028 18.6951 18.6744 18.2072 18.6513C18.1076 18.6465 18.0136 18.699 17.9657 18.7867L17.0806 20.3942C17.0322 20.4819 17.038 20.5899 17.0945 20.6718C17.3729 21.0757 17.4803 21.95 17.4827 22.3997L15.491 23.6042C15.0971 23.3907 14.3798 22.8856 14.156 22.4484C14.1104 22.3593 14.0179 22.3038 13.9188 22.3058L12.092 22.3381C11.9923 22.34 11.9022 22.3983 11.8596 22.4889C11.6511 22.9333 10.9519 23.464 10.5657 23.691L8.53286 22.5583C8.51945 22.1086 8.59612 21.2314 8.86016 20.8174C8.91384 20.733 8.91575 20.6251 8.864 20.5393L7.92282 18.9646C7.87154 18.8788 7.77571 18.8296 7.67651 18.8378C7.18915 18.8783 6.3831 18.5347 5.99446 18.312L5.95325 15.9748C6.33422 15.7382 7.12733 15.3665 7.61565 15.3897L7.61469 15.3906ZM9.1544 17.0877C9.1913 19.1743 10.9026 20.8357 12.9771 20.7991C15.0516 20.7619 16.7035 19.0408 16.667 16.9542C16.6301 14.8677 14.9189 13.2063 12.8444 13.2429C10.7698 13.28 9.11798 15.0012 9.1544 17.0877Z" fill="#1D4898"/>
<path d="M12.8699 14.7192C14.134 14.6966 15.1763 15.7093 15.1988 16.9803C15.2214 18.2513 14.2145 19.3001 12.9509 19.3227C11.6872 19.3454 10.6444 18.3327 10.6219 17.0617C10.5994 15.7907 11.6062 14.7419 12.8699 14.7192Z" fill="#1D4898"/>
<path d="M72.8305 13.281L73.1621 12.5209L74.0036 12.5026L74.3156 11.6239L75.218 11.8822L75.6143 10.9043L76.4745 11.0392L77.0083 10.161L76.6781 9.95764L76.2785 10.6141L75.3713 10.4719L74.9903 11.4118L74.0726 11.1496L73.7286 12.1189L72.9067 12.1372L72.5991 12.8414L72.0571 12.7397L71.9861 13.1229L72.8305 13.281Z" fill="#1D4898"/>
<path d="M4.97553 52.1949L5.30715 51.4353L6.14865 51.4165L6.46062 50.5378L7.36298 50.7962L7.75929 49.8187L8.619 49.9532L9.15332 49.075L8.82314 48.8716L8.42348 49.5281L7.51632 49.3859L7.13535 50.3257L6.21765 50.0635L5.87358 51.0328L5.05173 51.0511L4.74407 51.7553L4.20208 51.6536L4.13115 52.0368L4.97553 52.1949Z" fill="white"/>
<path d="M10.4367 58.9703L10.774 58.6734L11.2087 58.7842C11.258 58.7967 11.3007 58.7471 11.2806 58.6999L11.1037 58.2854L11.3429 57.9041C11.3702 57.8607 11.3361 57.8048 11.2853 57.8091L10.8387 57.8501L10.5521 57.5031C10.5196 57.4636 10.4558 57.479 10.4448 57.5291L10.3456 57.9687L9.92917 58.1359C9.88173 58.1547 9.87646 58.2203 9.92054 58.2468L10.3058 58.4777L10.3351 58.9279C10.3384 58.9789 10.3988 59.0045 10.4371 58.9703H10.4367Z" fill="#1D4898"/>
<path d="M43.633 6.50463L44.234 5.97541L45.0079 6.17351C45.0961 6.19616 45.1718 6.10699 45.1358 6.02313L44.821 5.28472L45.2475 4.60559C45.2959 4.52799 45.2355 4.42822 45.145 4.43689L44.3495 4.50967L43.8386 3.89176C43.7806 3.82139 43.6675 3.84887 43.6474 3.93803L43.4706 4.72127L42.7288 5.01866C42.6444 5.0524 42.6348 5.16904 42.7134 5.21579L43.3997 5.62693L43.4519 6.42848C43.4576 6.51958 43.5655 6.5644 43.6335 6.50415L43.633 6.50463Z" fill="#1D4898"/>
<path d="M45.4377 15.9073L46.0387 15.3781L46.8126 15.5762C46.9008 15.5989 46.9765 15.5097 46.9405 15.4258L46.6257 14.6874L47.0522 14.0083C47.1006 13.9307 47.0402 13.8309 46.9496 13.8396L46.1541 13.9124L45.6438 13.2945C45.5858 13.2241 45.4727 13.2516 45.4526 13.3407L45.2757 14.124L44.5339 14.4214C44.4496 14.4551 44.44 14.5717 44.5186 14.619L45.2048 15.0301L45.2571 15.8317C45.2628 15.9228 45.3706 15.9676 45.4387 15.9073H45.4377Z" fill="#7473E8"/>
<path d="M15.6833 64.48L16.2843 63.9507L17.0582 64.1488C17.1464 64.1715 17.2221 64.0823 17.1861 63.9985L16.8713 63.2601L17.2978 62.5809C17.3462 62.5033 17.2858 62.4036 17.1953 62.4122L16.3998 62.485L15.8894 61.8671C15.8314 61.7967 15.7183 61.8242 15.6977 61.9134L15.5209 62.6966L14.7791 62.994C14.6947 63.0277 14.6851 63.1444 14.7637 63.1911L15.45 63.6023L15.5022 64.4038C15.5079 64.4954 15.6158 64.5397 15.6838 64.4795L15.6833 64.48Z" fill="white"/>
<path d="M70.7942 17.6212L72.2529 17.6578L72.365 18.7385L73.8031 18.8247L74.0696 19.8533L75.1411 20.0577L75.0371 20.4842L73.6038 20.2114L73.3512 19.2368L71.8551 19.1467L71.7449 18.0839L70.4228 18.0507L70.7942 17.6212Z" fill="#7473E8"/>
<path d="M11.3476 53.5359C11.9404 54.711 13.3795 55.1698 14.5397 54.5427C15.6323 53.9523 16.0765 52.5849 15.5417 51.459C14.9738 50.2631 13.5424 49.7783 12.3746 50.3745C11.2235 50.962 10.7635 52.3776 11.3476 53.5354V53.5359Z" fill="#1D4898"/>
<path d="M14.714 52.2355C15.0265 52.8548 14.7806 53.6116 14.1648 53.9253C13.5495 54.2396 12.7972 53.9923 12.4847 53.373L14.714 52.2355Z" fill="#EFEFEF"/>
<path d="M58.4385 21.8937V66.127C58.4385 67.8996 57.0098 69.3365 55.2474 69.3365H21.908C20.1456 69.3365 18.7169 67.8996 18.7169 66.127V21.8937C18.7169 20.1211 20.1456 18.6841 21.908 18.6841H55.2474C57.0098 18.6841 58.4385 20.1211 58.4385 21.8937Z" fill="#1D4898"/>
<path d="M55.7417 63.7878V25.3726C55.7417 23.5791 54.294 22.123 52.5108 22.123H24.6441C22.8609 22.123 21.4132 23.5791 21.4132 25.3726V63.7878C21.4132 65.5813 22.8609 67.0374 24.6441 67.0374H52.5108C54.294 67.0374 55.7417 65.5813 55.7417 63.7878Z" fill="white"/>
<path d="M28.0577 35.8079H24.6562V31.3649H28.0577V35.8079Z" fill="#BDCAE9"/>
<path d="M25.0103 35.4035V31.7683H27.703V35.4035H25.0103Z" fill="white"/>
<path d="M29.0937 29.6653C28.9854 29.5964 28.8489 29.6407 28.7885 29.7636L26.3244 34.7903L25.6022 32.7544C25.5557 32.6233 25.4249 32.5602 25.3099 32.6132C25.1949 32.6662 25.1398 32.8151 25.1858 32.9462L26.2587 35.9722L29.1795 30.0133C29.2399 29.8899 29.2011 29.7342 29.0933 29.6653H29.0937Z" fill="#1D4898"/>
<path d="M28.0577 43.1105H24.6562V38.6675H28.0577V43.1105Z" fill="#BDCAE9"/>
<path d="M25.0103 42.7061V39.0709H27.703V42.7061H25.0103Z" fill="white"/>
<path d="M29.0937 36.5462C28.9854 36.4773 28.8489 36.5216 28.7885 36.6445L26.3244 41.6712L25.6022 39.6353C25.5557 39.5042 25.4249 39.441 25.3099 39.494C25.1949 39.5471 25.1398 39.696 25.1858 39.8271L26.2587 42.853L29.1795 36.8942C29.2399 36.7708 29.2011 36.6151 29.0933 36.5462H29.0937Z" fill="#1D4898"/>
<path d="M28.0577 50.1201H24.6562V45.6771H28.0577V50.1201Z" fill="#BDCAE9"/>
<path d="M25.0103 49.7157V46.0806H27.703V49.7157H25.0103Z" fill="white"/>
<path d="M29.0937 43.5563C28.9854 43.4874 28.8489 43.5317 28.7885 43.6546L26.3244 48.6813L25.6022 46.6454C25.5557 46.5143 25.4249 46.4511 25.3099 46.5042C25.1949 46.5572 25.1398 46.7061 25.1858 46.8372L26.2587 49.8632L29.1795 43.9043C29.2399 43.7809 29.2011 43.6252 29.0933 43.5563H29.0937Z" fill="#1D4898"/>
<path d="M28.0577 57.1298H24.6562V52.6868H28.0577V57.1298Z" fill="#BDCAE9"/>
<path d="M25.0103 56.7259V53.0907H27.703V56.7259H25.0103Z" fill="white"/>
<path d="M29.0937 50.5659C28.9854 50.497 28.8489 50.5414 28.7885 50.6648L26.3244 55.6914L25.6022 53.6555C25.5557 53.5244 25.4249 53.4613 25.3099 53.5143C25.1949 53.5673 25.1398 53.7162 25.1858 53.8473L26.2587 56.8733L29.1795 50.9144C29.2399 50.791 29.2011 50.6353 29.0933 50.5664L29.0937 50.5659Z" fill="#1D4898"/>
<path d="M52.1634 32.6777H32.0603C31.94 32.6777 31.8423 32.5794 31.8423 32.4584C31.8423 32.3375 31.94 32.2391 32.0603 32.2391H52.1634C52.2836 32.2391 52.3814 32.3375 52.3814 32.4584C52.3814 32.5794 52.2836 32.6777 52.1634 32.6777Z" fill="#BDCAE9"/>
<path d="M52.1634 33.9492H32.0603C31.94 33.9492 31.8423 33.8509 31.8423 33.7299C31.8423 33.6089 31.94 33.5106 32.0603 33.5106H52.1634C52.2836 33.5106 52.3814 33.6089 52.3814 33.7299C52.3814 33.8509 52.2836 33.9492 52.1634 33.9492Z" fill="#BDCAE9"/>
<path d="M41.9854 34.7826H32.07C31.9559 34.7826 31.8543 34.8665 31.8438 34.9802C31.8313 35.1108 31.9334 35.2207 32.0609 35.2207H41.9859C42.1062 35.2207 42.2039 35.1224 42.2039 35.0014C42.2039 34.8804 42.1062 34.7821 41.9859 34.7821L41.9854 34.7826Z" fill="#BDCAE9"/>
<path d="M52.2552 40.15H32.1521C32.0318 40.15 31.9341 40.0517 31.9341 39.9307C31.9341 39.8098 32.0318 39.7114 32.1521 39.7114H52.2552C52.3754 39.7114 52.4732 39.8098 52.4732 39.9307C52.4732 40.0517 52.3754 40.15 52.2552 40.15Z" fill="#BDCAE9"/>
<path d="M52.2552 41.422H32.1521C32.0318 41.422 31.9341 41.3237 31.9341 41.2027C31.9341 41.0817 32.0318 40.9834 32.1521 40.9834H52.2552C52.3754 40.9834 52.4732 41.0817 52.4732 41.2027C52.4732 41.3237 52.3754 41.422 52.2552 41.422Z" fill="#BDCAE9"/>
<path d="M42.0772 42.2549H32.1618C32.0477 42.2549 31.9461 42.3387 31.9356 42.4525C31.9231 42.5831 32.0252 42.6935 32.1527 42.6935H42.0777C42.198 42.6935 42.2957 42.5952 42.2957 42.4742C42.2957 42.3532 42.198 42.2549 42.0777 42.2549H42.0772Z" fill="#BDCAE9"/>
<path d="M52.1634 46.8463H32.0603C31.94 46.8463 31.8423 46.748 31.8423 46.627C31.8423 46.506 31.94 46.4077 32.0603 46.4077H52.1634C52.2836 46.4077 52.3814 46.506 52.3814 46.627C52.3814 46.748 52.2836 46.8463 52.1634 46.8463Z" fill="#BDCAE9"/>
<path d="M52.1634 48.1178H32.0603C31.94 48.1178 31.8423 48.0195 31.8423 47.8985C31.8423 47.7775 31.94 47.6792 32.0603 47.6792H52.1634C52.2836 47.6792 52.3814 47.7775 52.3814 47.8985C52.3814 48.0195 52.2836 48.1178 52.1634 48.1178Z" fill="#BDCAE9"/>
<path d="M41.9854 48.9507H32.07C31.9559 48.9507 31.8543 49.0346 31.8438 49.1483C31.8313 49.2789 31.9334 49.3893 32.0609 49.3893H41.9859C42.1062 49.3893 42.2039 49.291 42.2039 49.17C42.2039 49.049 42.1062 48.9507 41.9859 48.9507H41.9854Z" fill="#BDCAE9"/>
<path d="M52.2552 53.9519H32.1521C32.0318 53.9519 31.9341 53.8536 31.9341 53.7326C31.9341 53.6116 32.0318 53.5133 32.1521 53.5133H52.2552C52.3754 53.5133 52.4732 53.6116 52.4732 53.7326C52.4732 53.8536 52.3754 53.9519 52.2552 53.9519Z" fill="#BDCAE9"/>
<path d="M52.2552 55.2234H32.1521C32.0318 55.2234 31.9341 55.1251 31.9341 55.0041C31.9341 54.8831 32.0318 54.7848 32.1521 54.7848H52.2552C52.3754 54.7848 52.4732 54.8831 52.4732 55.0041C52.4732 55.1251 52.3754 55.2234 52.2552 55.2234Z" fill="#BDCAE9"/>
<path d="M42.0772 56.0563H32.1618C32.0477 56.0563 31.9461 56.1401 31.9356 56.2539C31.9231 56.3845 32.0252 56.4944 32.1527 56.4944H42.0777C42.198 56.4944 42.2957 56.3961 42.2957 56.2751C42.2957 56.1541 42.198 56.0558 42.0777 56.0558L42.0772 56.0563Z" fill="#BDCAE9"/>
<path d="M45.9731 22.1231H33.1561L33.2883 18.6841H45.8409L45.9731 22.1231Z" fill="#E27023"/>
<path d="M31.8426 22.1231H44.6602L44.4642 18.3101H32.0391L31.8426 22.1231Z" fill="#7473E8"/>
<path d="M37.9442 14.5948C38.8389 14.5948 39.5645 15.3246 39.5645 16.2245V18.6653H36.324V16.2245C36.324 15.3246 37.0495 14.5948 37.9442 14.5948ZM37.9442 16.6611C38.2979 16.6611 38.5845 16.3729 38.5845 16.0172C38.5845 15.6615 38.2979 15.3733 37.9442 15.3733C37.5906 15.3733 37.304 15.6615 37.304 16.0172C37.304 16.3729 37.5906 16.6611 37.9442 16.6611Z" fill="#7473E8"/>
<path d="M15.0892 41.2712L14.0445 41.1237C14.0445 41.1237 12.8455 39.9712 12.8479 39.616C12.8498 39.2608 13.156 38.5465 12.9629 38.4284C12.7698 38.3103 12.3452 38.1835 12.015 38.6135C11.7754 38.9258 11.7917 40.1746 11.659 40.2416C11.5756 40.2836 10.9732 40.2161 10.5333 40.1592C10.2443 40.1221 9.95921 40.2493 9.79244 40.4899H9.79196C9.67935 40.6528 9.69516 40.8726 9.82982 41.0172L10.0397 41.2422L9.82599 41.4649C9.66689 41.6312 9.6712 41.8949 9.83509 42.0558L10.0023 42.2197L9.85857 42.3489C9.6736 42.5152 9.67264 42.8063 9.85762 42.9731L10.0076 43.1085L9.97742 43.1509C9.85235 43.3278 9.88206 43.5722 10.0464 43.7129L10.1979 43.8426L12.9797 44.2344C13.2404 44.2711 13.5059 44.2537 13.7594 44.1838L14.7605 44.1588C14.8683 44.1559 14.9574 44.0744 14.9708 43.9674L15.2751 41.5136C15.29 41.395 15.2071 41.2866 15.0897 41.2702L15.0892 41.2712Z" fill="#1D4898"/>
<path d="M65.1979 33.2894L64.9683 33.2244C64.9683 33.2244 64.1661 33.3511 64.0957 33.5526C63.9648 33.9261 64.8308 34.8193 65.0412 34.8193C65.2515 34.8193 64.7522 33.9912 64.7522 33.9912C64.7522 33.9912 65.1883 34.7696 65.3694 34.6612C65.5506 34.5527 65.1782 33.9367 65.1782 33.9367C65.1782 33.9367 65.5774 34.5359 65.6536 34.4592C65.7298 34.3826 65.4677 33.5757 65.4677 33.5757L65.1979 33.289V33.2894Z" fill="#F48C7F"/>
<path d="M57.282 15.1174C60.0106 16.8328 63.6177 15.996 65.3237 13.252C67.0292 10.5076 66.1973 6.87965 63.4691 5.16376C60.7405 3.44836 57.1334 4.28509 55.4274 7.02907C53.7219 9.77304 54.5538 13.4015 57.282 15.1174Z" fill="#1D4898"/>
<path d="M57.3624 14.9877C60.0197 16.6588 63.5333 15.8437 65.1947 13.1706C66.8561 10.498 66.0458 6.96403 63.3881 5.29297C60.7308 3.6219 57.2172 4.43695 55.5558 7.11007C53.8944 9.78271 54.7047 13.3167 57.3624 14.9877Z" fill="#1D4898"/>
<path d="M57.0794 13.4644C55.2669 11.6414 55.2669 8.68574 57.0794 6.86274C58.8919 5.03974 61.8305 5.03974 63.643 6.86274C65.4555 8.68574 65.4555 11.6414 63.643 13.4644C61.8305 15.2874 58.8919 15.2874 57.0794 13.4644Z" fill="white"/>
<path d="M58.0416 13.895C60.0984 15.1882 62.8184 14.5578 64.1041 12.4886C65.3899 10.4199 64.763 7.6841 62.7058 6.39092C60.649 5.09726 57.929 5.72818 56.6432 7.79737C55.3575 9.86656 55.9843 12.6019 58.0416 13.895Z" fill="white"/>
<path d="M63.7265 11.9724L64.3946 12.3922C64.5043 12.4611 64.5379 12.6072 64.4693 12.7176C64.4008 12.8279 64.2556 12.8617 64.1459 12.7928L63.4778 12.3729C63.3681 12.304 63.3346 12.158 63.4031 12.0476C63.4716 11.9372 63.6168 11.9035 63.7265 11.9724Z" fill="#1D4898"/>
<path d="M58.4795 13.1899C58.5893 13.2589 58.6228 13.4049 58.5543 13.5153L58.1369 14.1872C58.0684 14.2975 57.9232 14.3313 57.8134 14.2624C57.7037 14.1934 57.6701 14.0474 57.7387 13.937L58.1561 13.2651C58.2246 13.1547 58.3698 13.121 58.4795 13.1899Z" fill="#1D4898"/>
<path d="M56.6015 7.49279L57.2696 7.9126C57.3793 7.98153 57.4129 8.12757 57.3443 8.23795C57.2758 8.34832 57.1306 8.38206 57.0209 8.31314L56.3528 7.89332C56.2431 7.8244 56.2096 7.67836 56.2781 7.56798C56.3466 7.4576 56.4918 7.42386 56.6015 7.49279Z" fill="#1D4898"/>
<path d="M62.9341 6.02367C63.0439 6.0926 63.0774 6.23864 63.0089 6.34902L62.5915 7.02091C62.523 7.13129 62.3778 7.16503 62.268 7.0961C62.1583 7.02718 62.1247 6.88113 62.1933 6.77076L62.6107 6.09886C62.6792 5.98849 62.8244 5.95475 62.9341 6.02367Z" fill="#1D4898"/>
<path d="M61.6417 3.79783L61.7265 2.87289C61.7332 2.79674 61.6776 2.72974 61.6024 2.72299L60.5472 2.62563C60.4714 2.6184 60.4048 2.67431 60.3981 2.75046L60.3133 3.6754C60.3066 3.75156 60.3622 3.81856 60.4374 3.82579L61.4922 3.92315C61.5679 3.93038 61.6345 3.87399 61.6417 3.79831V3.79783Z" fill="#1D4898"/>
<path d="M65.4279 6.20578L66.2177 5.72427C66.2823 5.68475 66.3667 5.70547 66.406 5.77054L66.9552 6.68199C66.9945 6.74705 66.9739 6.83188 66.9092 6.87141L66.1194 7.35292C66.0547 7.39244 65.9699 7.37171 65.9306 7.30665L65.3814 6.39568C65.3421 6.33061 65.3627 6.2453 65.4274 6.20578H65.4279Z" fill="#1D4898"/>
<path d="M64.5537 4.5237C64.616 4.56274 64.6989 4.54394 64.7377 4.4808L65.0899 3.91398C65.1292 3.85084 65.11 3.76793 65.0477 3.72889L63.8972 3.00542C63.8349 2.96638 63.752 2.98518 63.7131 3.04832L63.3609 3.61514C63.3216 3.67828 63.3408 3.76119 63.4031 3.80023L64.5537 4.5237Z" fill="#1D4898"/>
<path d="M64.1938 4.68996C64.7885 4.83504 65.434 4.59212 65.7761 4.0412C66.2036 3.3534 65.9961 2.44678 65.3118 2.01684C64.6279 1.58691 63.7265 1.79561 63.2991 2.48389C62.9569 3.03432 63.0221 3.72502 63.4122 4.1993L63.221 4.50681C62.6732 3.92022 62.562 3.0136 63.0058 2.29977C63.5339 1.45002 64.6505 1.19119 65.4953 1.72235C66.3402 2.2535 66.5975 3.37654 66.0694 4.22629C65.6257 4.94012 64.7664 5.23654 64.0026 4.99844L64.1938 4.69045V4.68996Z" fill="#1D4898"/>
<path d="M63.53 5.0645C63.3958 4.98015 63.2593 4.90158 63.1213 4.82928L63.6297 4.01086L64.2651 4.41043L63.7629 5.21825C63.6867 5.16523 63.6091 5.11366 63.5295 5.06401L63.53 5.0645Z" fill="#1D4898"/>
<path d="M60.013 9.90599C59.8874 10.1075 59.9488 10.373 60.1491 10.4993C60.3494 10.6251 60.6134 10.5639 60.739 10.3624C60.8645 10.161 60.8032 9.89539 60.6029 9.7691C60.4026 9.6433 60.1385 9.70452 60.013 9.90599Z" fill="#1D4898"/>
<path d="M60.4905 6.58703L60.2255 10.1277C60.2188 10.2169 60.2854 10.2945 60.3741 10.3012C60.4627 10.308 60.5399 10.241 60.5466 10.1518C60.5475 10.1379 60.5495 10.2959 60.4905 6.58655V6.58703Z" fill="#1D4898"/>
<path d="M57.0426 11.3606L60.4115 10.2993C60.4963 10.2728 60.5437 10.1817 60.5169 10.0964C60.4906 10.0111 60.4 9.96335 60.3152 9.99034C60.3017 9.99467 60.4474 9.93443 57.0426 11.3611V11.3606Z" fill="#1D4898"/>
<path d="M60.2275 10.041C60.1762 10.1234 60.2011 10.2318 60.2831 10.2834C60.365 10.335 60.4728 10.3099 60.5241 10.2275C60.5754 10.1451 60.5505 10.0366 60.4685 9.98507C60.3866 9.93349 60.2788 9.95856 60.2275 10.041Z" fill="#1D4898"/>
</g>
<defs>
<clipPath id="clip0_41_5609">
<rect width="80.6623" height="69.4505" fill="white" transform="matrix(-1 0 0 1 81.2695 0.128418)"/>
</clipPath>
</defs>
</svg>
