<svg width="142" height="121" viewBox="0 0 142 121" fill="none" xmlns="http://www.w3.org/2000/svg">
<g clip-path="url(#clip0_41_4916)">
<path d="M89.3717 64.6479C88.7877 64.5738 88.3698 64.0376 88.4358 63.4515C88.5017 62.8654 89.0296 62.4524 89.6136 62.5265C90.4323 62.6327 91.2701 62.718 92.101 62.7819C92.4393 62.8081 92.7298 62.9892 92.908 63.2498C93.0401 63.443 93.111 63.678 93.095 63.9283C93.0592 64.5172 92.5524 64.9573 91.9666 64.9105C91.0979 64.8437 90.2258 64.7533 89.371 64.6432L89.3717 64.6479Z" fill="#474747"/>
<path d="M125.024 55.6164C125.024 55.6164 125.017 55.6058 125.014 55.6023C124.687 55.1083 124.818 54.4459 125.306 54.1233C125.546 53.9644 125.783 53.8049 126.02 53.6424C126.464 53.339 126.912 53.0225 127.349 52.7025C127.821 52.3568 128.487 52.4655 128.836 52.9452C128.842 52.954 128.849 52.9647 128.855 52.9735C129.181 53.4504 129.076 54.0995 128.614 54.4362C128.159 54.7682 127.694 55.0996 127.231 55.4132C126.985 55.5816 126.737 55.7483 126.487 55.9114C126.005 56.2305 125.352 56.0968 125.021 55.6129L125.024 55.6164Z" fill="#474747"/>
<path d="M136.527 45.6915C136.072 45.3137 136.003 44.64 136.373 44.1869C136.897 43.5475 137.409 42.8856 137.895 42.2203C138.241 41.7472 138.906 41.6514 139.379 42.0065C139.478 42.0795 139.562 42.168 139.627 42.2637C139.878 42.6306 139.886 43.1268 139.612 43.5017C139.102 44.1962 138.567 44.8873 138.02 45.5576C137.651 46.0107 136.981 46.0704 136.525 45.6926L136.527 45.6915Z" fill="#474747"/>
<path d="M107.476 63.8556C106.634 64.0354 105.776 64.198 104.926 64.3375C104.348 64.4335 103.796 64.0385 103.692 63.4562C103.589 62.8739 103.975 62.3241 104.553 62.2281C105.37 62.0929 106.195 61.9376 107.006 61.7627C107.443 61.6698 107.875 61.8603 108.115 62.2113C108.191 62.3212 108.247 62.4489 108.277 62.5869C108.406 63.1649 108.048 63.7324 107.474 63.8538L107.476 63.8556Z" fill="#474747"/>
<path d="M76.7687 61.414C76.0046 61.1327 75.2153 60.8296 74.3516 60.4889C73.8022 60.2741 73.5254 59.6517 73.7348 59.1029C73.9411 58.5534 74.5566 58.2835 75.1055 58.5013C75.9549 58.8361 76.7316 59.1322 77.4797 59.4088C77.6982 59.4884 77.8755 59.6351 77.9979 59.8141C78.1857 60.0889 78.2453 60.4461 78.1264 60.7822C77.9302 61.3352 77.3227 61.6205 76.7699 61.4158L76.7687 61.414Z" fill="#474747"/>
<path d="M82.4095 63.2513C82.1747 63.1855 81.94 63.1197 81.7058 63.051C81.1396 62.8866 80.8068 62.2948 80.9627 61.7278C81.1186 61.1608 81.703 60.8342 82.2692 60.9985C82.495 61.0626 82.7209 61.1266 82.9467 61.1907C83.5228 61.3509 84.11 61.5008 84.6922 61.636C84.964 61.6999 85.1887 61.8636 85.3366 62.0798C85.499 62.3173 85.567 62.6194 85.5018 62.9215C85.3749 63.4972 84.8082 63.8534 84.2337 63.7182C83.6255 63.5748 83.0134 63.4185 82.4095 63.2513Z" fill="#474747"/>
<path d="M131.142 51.0796C130.75 50.6375 130.782 49.9602 131.218 49.5709C131.834 49.0199 132.443 48.4447 133.029 47.8649C133.445 47.4531 134.117 47.4616 134.532 47.8852C134.577 47.9324 134.619 47.9819 134.655 48.0351C134.943 48.4552 134.901 49.0323 134.532 49.3964C133.921 50.0019 133.286 50.5998 132.644 51.1763C132.208 51.5657 131.535 51.5234 131.142 51.0796Z" fill="#474747"/>
<path d="M30.5114 55.4855C31.2355 54.9957 31.9883 54.533 32.7513 54.1076C33.2334 53.8378 33.8396 53.993 34.1486 54.445C34.1668 54.4716 34.1849 54.4982 34.2008 54.5289C34.4904 55.0462 34.3119 55.6964 33.8011 55.9806C33.0894 56.3761 32.3879 56.8089 31.7146 57.264C31.2316 57.589 30.5735 57.4589 30.2402 56.9715L30.2366 56.9662C29.9039 56.4758 30.0267 55.8117 30.5114 55.4855Z" fill="#474747"/>
<path d="M28.0459 58.9741C28.3368 59.3995 28.2902 59.9802 27.9135 60.3443C27.3271 60.9117 26.7626 61.511 26.2324 62.1232C25.8507 62.5662 25.1798 62.6087 24.7339 62.2191C24.2868 61.8277 24.2368 61.1544 24.6185 60.7114C25.1878 60.0516 25.7958 59.407 26.4268 58.7961C26.8463 58.3896 27.5201 58.4076 27.9301 58.8348C27.9728 58.8784 28.0102 58.9257 28.0442 58.9753L28.0459 58.9741Z" fill="#474747"/>
<path d="M40.0683 51.1963C40.5127 51.0849 40.9672 51.2735 41.2145 51.6351C41.2835 51.7362 41.3351 51.8492 41.3681 51.9723C41.5189 52.5455 41.1798 53.1258 40.6134 53.2686C39.8268 53.4682 39.0368 53.7041 38.2668 53.973C37.7143 54.1661 37.1044 53.8704 36.9066 53.3111C36.7071 52.753 36.9944 52.1456 37.5469 51.9525C38.3755 51.6643 39.2242 51.4092 40.07 51.1951L40.0683 51.1963Z" fill="#474747"/>
<path d="M97.1718 65.0608C96.5846 65.0721 96.0931 64.6044 96.0723 64.0152C96.0514 63.426 96.5119 62.9369 97.0978 62.9239C97.9249 62.9072 98.7651 62.8686 99.595 62.811C99.9872 62.7847 100.348 62.975 100.557 63.2799C100.66 63.4306 100.725 63.6093 100.742 63.8031C100.791 64.3915 100.356 64.9024 99.7708 64.9433C98.9068 65.0034 98.0342 65.0434 97.1718 65.0608Z" fill="#474747"/>
<path d="M118.302 59.2C118.046 58.6648 118.268 58.0293 118.798 57.7794C119.546 57.4264 120.294 57.0503 121.024 56.663C121.505 56.4068 122.098 56.5656 122.402 57.0105C122.424 57.0424 122.447 57.0761 122.464 57.1116C122.745 57.6349 122.552 58.2792 122.035 58.5545C121.275 58.9573 120.496 59.349 119.721 59.7152C119.192 59.9651 118.558 59.7353 118.301 59.1983L118.302 59.2Z" fill="#474747"/>
<path d="M23.4588 66.0846C23.1033 66.7646 22.7748 67.5068 22.4797 68.2939C22.2733 68.8433 21.662 69.1156 21.1109 68.902C20.5614 68.6872 20.2812 68.0672 20.4875 67.5178C20.8113 66.6487 21.179 65.8251 21.5744 65.0684C21.8473 64.5488 22.4889 64.3547 23.0095 64.636C23.1673 64.7206 23.2957 64.8409 23.3902 64.9792C23.6084 65.2982 23.6497 65.7225 23.4588 66.0846Z" fill="#474747"/>
<path d="M114.944 61.7095C114.136 62.0047 113.311 62.2828 112.491 62.5389C111.933 62.7125 111.331 62.3984 111.152 61.8336C110.972 61.2701 111.278 60.6709 111.836 60.4974C112.626 60.2509 113.421 59.9807 114.2 59.6981C114.665 59.5279 115.176 59.7091 115.447 60.1044C115.496 60.1771 115.537 60.2557 115.57 60.3404C115.776 60.8966 115.498 61.5075 114.948 61.7071L114.944 61.7095Z" fill="#474747"/>
<path d="M20.6347 80.4876C20.648 81.3135 20.6829 82.1558 20.7401 82.9932C20.781 83.5818 20.3391 84.0868 19.7541 84.12C19.1691 84.1532 18.6608 83.7022 18.62 83.1136C18.5591 82.2371 18.5205 81.3556 18.5094 80.4919C18.501 79.902 18.9705 79.4223 19.5572 79.4217C19.9252 79.4199 20.2512 79.608 20.4475 79.8951C20.5639 80.0653 20.6325 80.2707 20.6359 80.4894L20.6347 80.4876Z" fill="#474747"/>
<path d="M69.5817 58.5453C68.792 58.219 68.0028 57.8898 67.2155 57.5671C66.6677 57.3434 66.4021 56.7187 66.6168 56.1739C66.8315 55.6292 67.4501 55.3675 67.9949 55.5907C68.7864 55.9157 69.5773 56.2437 70.3711 56.5723C70.572 56.6561 70.7355 56.794 70.8494 56.9606C71.0458 57.2478 71.1004 57.624 70.9634 57.9674C70.7457 58.5115 70.1277 58.7702 69.5817 58.5453Z" fill="#474747"/>
<path d="M52.8229 52.9454C52.2438 52.8446 51.8474 52.2911 51.9417 51.709C52.0342 51.1281 52.5796 50.737 53.16 50.8396C53.996 50.9859 54.8584 51.1636 55.7279 51.3703C55.9998 51.4341 56.2228 51.599 56.3694 51.8135C56.533 52.0527 56.601 52.3548 56.5341 52.6581C56.406 53.232 55.8381 53.5865 55.2636 53.4513C54.4367 53.2545 53.6157 53.0849 52.8212 52.9466L52.8229 52.9454Z" fill="#474747"/>
<path d="M21.3425 87.9841C21.4825 88.8039 21.6463 89.6361 21.8294 90.4551C21.9579 91.0331 21.5968 91.6 21.0235 91.7214C20.4501 91.8429 19.8831 91.4711 19.7528 90.8943C19.5638 90.0403 19.3935 89.1761 19.2475 88.3213C19.1472 87.7396 19.5358 87.1904 20.1132 87.0974C20.5342 87.0306 20.9393 87.2219 21.1683 87.5569C21.2544 87.6827 21.3142 87.8265 21.3407 87.9852L21.3425 87.9841Z" fill="#474747"/>
<path d="M62.4737 55.6979C61.6354 55.3868 60.8554 55.1085 60.087 54.8509C59.528 54.6634 59.2209 54.0567 59.4 53.4973C59.579 52.9379 60.1786 52.6372 60.7375 52.8247C61.5261 53.0893 62.3262 53.3746 63.1848 53.6928C63.4015 53.7735 63.5793 53.9172 63.7017 54.0963C63.8907 54.3728 63.9503 54.73 63.8315 55.0662C63.6352 55.6191 63.0265 55.9026 62.4725 55.6962L62.4737 55.6979Z" fill="#474747"/>
<path d="M46.5171 52.4526C46.1616 52.4615 45.8034 52.4775 45.4482 52.5019C44.8622 52.541 44.3516 52.0942 44.3048 51.5045C44.258 50.9148 44.6957 50.4074 45.2818 50.3683C45.6646 50.3433 46.0541 50.3241 46.4372 50.3144C46.9282 50.3013 47.4289 50.3023 47.925 50.3117C48.2837 50.3187 48.5991 50.5063 48.7893 50.7846C48.9105 50.9618 48.9805 51.1767 48.9776 51.405C48.9725 51.9937 48.4928 52.4622 47.9052 52.4503C47.4415 52.4396 46.9756 52.4408 46.5188 52.4514L46.5171 52.4526Z" fill="#474747"/>
<path d="M20.8546 75.4991C20.7917 76.0858 20.2679 76.5011 19.6846 76.4317C19.1001 76.3606 18.677 75.8279 18.7411 75.243C18.8369 74.3556 18.9618 73.4769 19.1138 72.6342C19.2182 72.0556 19.7709 71.6751 20.3492 71.7896C20.6392 71.8462 20.8799 72.0146 21.035 72.2415C21.1901 72.4684 21.2596 72.7538 21.2077 73.0416C21.0642 73.8368 20.9473 74.6633 20.8576 75.4997L20.8546 75.4991Z" fill="#474747"/>
<path d="M21.6134 93.9869L27.992 88.2706C26.4021 92.9393 25.8431 99.6708 26.0146 104.849C22.5277 100.991 17.4249 96.5124 13.021 94.2301L21.6163 93.9874L21.6134 93.9869Z" fill="#474747"/>
</g>
<defs>
<clipPath id="clip0_41_4916">
<rect width="54.5306" height="133.848" fill="white" transform="matrix(0.564398 0.825503 0.825503 -0.564398 0.539062 75.9778)"/>
</clipPath>
</defs>
</svg>
