<svg width="20" height="20" viewBox="0 0 20 20" fill="none" xmlns="http://www.w3.org/2000/svg">
<path d="M9.75879 0.0878906C7.18073 0.0878906 6.85654 0.0997656 5.8436 0.144891C4.83066 0.192391 4.14073 0.351516 3.53629 0.586641C2.90228 0.825113 2.328 1.19918 1.8536 1.6827C1.37038 2.15734 0.996354 2.73155 0.757539 3.36539C0.522414 3.96864 0.362102 4.65977 0.315789 5.66914C0.270664 6.68445 0.258789 7.00745 0.258789 9.58908C0.258789 12.1683 0.270664 12.4913 0.315789 13.5043C0.363289 14.516 0.522414 15.206 0.757539 15.8104C1.00098 16.435 1.32516 16.9646 1.8536 17.4931C2.38085 18.0215 2.91048 18.3469 3.5351 18.5891C4.14073 18.8243 4.82948 18.9846 5.84123 19.0309C6.85535 19.076 7.17835 19.0879 9.75879 19.0879C12.3392 19.0879 12.661 19.076 13.6752 19.0309C14.6857 18.9834 15.378 18.8243 15.9825 18.5891C16.6161 18.3505 17.1899 17.9765 17.664 17.4931C18.1924 16.9646 18.5166 16.435 18.76 15.8104C18.994 15.206 19.1543 14.516 19.2018 13.5043C19.2469 12.4913 19.2588 12.1683 19.2588 9.58789C19.2588 7.00745 19.2469 6.68445 19.2018 5.67033C19.1543 4.65977 18.994 3.96864 18.76 3.36539C18.5213 2.73153 18.1472 2.15732 17.664 1.6827C17.1897 1.19901 16.6154 0.824907 15.9813 0.586641C15.3757 0.351516 14.6845 0.191203 13.674 0.144891C12.6599 0.0997656 12.338 0.0878906 9.75641 0.0878906H9.75879ZM8.90735 1.80027H9.75998C12.2965 1.80027 12.5969 1.80858 13.598 1.85489C14.5242 1.89645 15.0277 2.05202 15.3626 2.18145C15.8055 2.35364 16.1226 2.56027 16.4551 2.89277C16.7876 3.22527 16.993 3.54114 17.1652 3.98527C17.2959 4.31895 17.4502 4.82245 17.4918 5.7487C17.5381 6.74977 17.5476 7.0502 17.5476 9.58552C17.5476 12.1208 17.5381 12.4225 17.4918 13.4235C17.4502 14.3498 17.2947 14.8521 17.1652 15.187C17.0129 15.5994 16.7698 15.9724 16.4539 16.2783C16.1214 16.6108 15.8055 16.8162 15.3614 16.9884C15.0289 17.119 14.5254 17.2734 13.598 17.3161C12.5969 17.3613 12.2965 17.372 9.75998 17.372C7.22348 17.372 6.92185 17.3613 5.92079 17.3161C4.99454 17.2734 4.49223 17.119 4.15735 16.9884C3.74469 16.8363 3.37138 16.5936 3.06485 16.2783C2.74868 15.9719 2.50521 15.5986 2.35235 15.1858C2.22291 14.8521 2.06735 14.3486 2.02579 13.4223C1.98066 12.4213 1.97116 12.1208 1.97116 9.58314C1.97116 7.04664 1.98066 6.74739 2.02579 5.74633C2.06854 4.82008 2.22291 4.31658 2.35354 3.9817C2.52573 3.53877 2.73235 3.2217 3.06485 2.8892C3.39735 2.5567 3.71323 2.35127 4.15735 2.17908C4.49223 2.04845 4.99454 1.89408 5.92079 1.85133C6.79716 1.81095 7.13679 1.79908 8.90735 1.79789V1.80027ZM14.8306 3.37727C14.6809 3.37727 14.5327 3.40675 14.3943 3.46404C14.256 3.52133 14.1304 3.60531 14.0245 3.71116C13.9186 3.81702 13.8347 3.9427 13.7774 4.08101C13.7201 4.21932 13.6906 4.36756 13.6906 4.51727C13.6906 4.66697 13.7201 4.81521 13.7774 4.95352C13.8347 5.09184 13.9186 5.21751 14.0245 5.32337C14.1304 5.42923 14.256 5.5132 14.3943 5.57049C14.5327 5.62778 14.6809 5.65727 14.8306 5.65727C15.1329 5.65727 15.4229 5.53716 15.6367 5.32337C15.8505 5.10958 15.9706 4.81961 15.9706 4.51727C15.9706 4.21492 15.8505 3.92496 15.6367 3.71116C15.4229 3.49737 15.1329 3.37727 14.8306 3.37727ZM9.75998 4.70964C9.11287 4.69954 8.47023 4.81828 7.86945 5.05893C7.26867 5.29959 6.72178 5.65735 6.26059 6.11139C5.79941 6.56544 5.43316 7.10669 5.18316 7.70364C4.93317 8.30058 4.80442 8.9413 4.80442 9.58848C4.80442 10.2357 4.93317 10.8764 5.18316 11.4733C5.43316 12.0703 5.79941 12.6115 6.26059 13.0656C6.72178 13.5196 7.26867 13.8774 7.86945 14.118C8.47023 14.3587 9.11287 14.4774 9.75998 14.4673C11.0407 14.4473 12.2623 13.9245 13.1609 13.0118C14.0596 12.099 14.5633 10.8694 14.5633 9.58848C14.5633 8.30756 14.0596 7.07801 13.1609 6.16522C12.2623 5.25243 11.0407 4.72962 9.75998 4.70964ZM9.75998 6.42083C10.1759 6.42083 10.5877 6.50275 10.972 6.66191C11.3562 6.82107 11.7053 7.05435 11.9994 7.34844C12.2935 7.64253 12.5268 7.99166 12.686 8.37591C12.8451 8.76015 12.927 9.17199 12.927 9.58789C12.927 10.0038 12.8451 10.4156 12.686 10.7999C12.5268 11.1841 12.2935 11.5333 11.9994 11.8273C11.7053 12.1214 11.3562 12.3547 10.972 12.5139C10.5877 12.673 10.1759 12.755 9.75998 12.755C8.92002 12.755 8.11446 12.4213 7.52052 11.8273C6.92659 11.2334 6.59291 10.4278 6.59291 9.58789C6.59291 8.74793 6.92659 7.94238 7.52052 7.34844C8.11446 6.7545 8.92002 6.42083 9.75998 6.42083Z" fill="#474747"/>
</svg>
