<svg width="20" height="20" viewBox="0 0 20 20" fill="none" xmlns="http://www.w3.org/2000/svg">
<path d="M0.258789 1.44877C0.258789 0.697078 0.883414 0.0878906 1.6541 0.0878906H17.8635C18.6342 0.0878906 19.2588 0.697078 19.2588 1.44877V17.727C19.2588 18.4787 18.6342 19.0879 17.8635 19.0879H1.6541C0.883414 19.0879 0.258789 18.4787 0.258789 17.727V1.44877ZM6.1286 15.9933V7.41358H3.27741V15.9933H6.1286ZM4.7036 6.24152C5.69754 6.24152 6.31623 5.58364 6.31623 4.75952C6.29841 3.91758 5.69873 3.27752 4.7226 3.27752C3.74648 3.27752 3.10879 3.91877 3.10879 4.75952C3.10879 5.58364 3.72748 6.24152 4.6846 6.24152H4.7036ZM10.5319 15.9933V11.2017C10.5319 10.9452 10.5509 10.6887 10.6269 10.5058C10.8323 9.99402 11.3014 9.4632 12.0899 9.4632C13.1218 9.4632 13.5339 10.2493 13.5339 11.4036V15.9933H16.385V11.0723C16.385 8.43602 14.979 7.21052 13.1028 7.21052C11.5899 7.21052 10.9119 8.04177 10.5319 8.6272V8.65689H10.5129C10.5192 8.64698 10.5255 8.63708 10.5319 8.6272V7.41358H7.68185C7.71748 8.2187 7.68185 15.9933 7.68185 15.9933H10.5319Z" fill="#474747"/>
</svg>
