<svg width="269" height="73" viewBox="0 0 269 73" fill="none" xmlns="http://www.w3.org/2000/svg">
<g clip-path="url(#clip0_41_4986)">
<path d="M148.74 12.8656C148.888 13.6675 149.158 14.491 149.543 15.3096C149.825 15.9122 149.56 16.6253 148.949 16.9038C148.783 16.9782 148.611 17.0142 148.438 17.0142C147.978 17.0142 147.537 16.7549 147.333 16.318C146.863 15.3144 146.529 14.2989 146.344 13.2954C146.223 12.6423 146.663 12.0181 147.323 11.8981C147.983 11.7805 148.618 12.2126 148.74 12.8632V12.8656Z" fill="#474747"/>
<path d="M154.844 23.2491C154.603 23.53 154.26 23.6764 153.912 23.6764C153.635 23.6764 153.357 23.5828 153.128 23.3955C152.325 22.7305 151.575 22.0367 150.899 21.3356C150.436 20.8555 150.453 20.0944 150.94 19.6383C151.427 19.1821 152.199 19.1989 152.661 19.6815C153.277 20.3177 153.961 20.9515 154.694 21.5613C155.207 21.9886 155.273 22.7449 154.842 23.2539L154.844 23.2491Z" fill="#474747"/>
<path d="M149.375 7.96323C149.171 8.40257 148.73 8.65946 148.27 8.65946C148.1 8.65946 147.924 8.62345 147.759 8.54902C147.148 8.27053 146.883 7.55749 147.165 6.95489C147.635 5.95376 148.256 5.04626 149.01 4.25639C149.473 3.77383 150.242 3.75222 150.731 4.20838C151.22 4.66453 151.242 5.42318 150.78 5.90574C150.205 6.50354 149.733 7.19737 149.373 7.96323H149.375Z" fill="#474747"/>
<path d="M148.72 71.402C148.713 72.0598 148.17 72.5904 147.503 72.5904H147.491C146.512 72.5807 145.512 72.5471 144.514 72.4895C143.842 72.4511 143.331 71.8821 143.37 71.2219C143.409 70.5593 143.991 70.0599 144.655 70.0935C145.614 70.1487 146.576 70.1823 147.515 70.1896C148.187 70.1968 148.727 70.7393 148.72 71.402Z" fill="#474747"/>
<path d="M62.7729 51.737C62.7218 51.737 62.6682 51.7346 62.6147 51.7274C61.6556 51.605 60.6868 51.4873 59.7326 51.3793C59.0657 51.3025 58.5861 50.7071 58.664 50.0492C58.7419 49.3914 59.3432 48.9161 60.0125 48.9929C60.9789 49.1033 61.9599 49.221 62.9311 49.3458C63.598 49.4322 64.0678 50.0348 63.9802 50.6903C63.8999 51.2953 63.3766 51.7346 62.7753 51.7346L62.7729 51.737Z" fill="#474747"/>
<path d="M54.0609 50.8102C54.0269 50.8102 53.9904 50.8102 53.9563 50.8054C52.9972 50.7238 52.0236 50.6494 51.0621 50.5821C50.3927 50.5341 49.8864 49.9603 49.9351 49.3001C49.9838 48.6399 50.5679 48.1381 51.2349 48.1885C52.2086 48.2558 53.192 48.3326 54.1632 48.4142C54.8326 48.4718 55.3291 49.0528 55.2707 49.7131C55.2172 50.3397 54.6841 50.8102 54.0585 50.8102H54.0609Z" fill="#474747"/>
<path d="M27.8453 50.2485C26.8838 50.2869 25.9077 50.3301 24.9438 50.3806C24.9219 50.3806 24.9 50.3806 24.878 50.3806C24.2354 50.3806 23.6975 49.8836 23.6634 49.245C23.6269 48.5824 24.1429 48.0182 24.8148 47.9822C25.7884 47.9317 26.7767 47.8861 27.7479 47.8477C28.4149 47.8261 28.9869 48.3375 29.0137 49.0001C29.0404 49.6627 28.5171 50.2221 27.8453 50.2485Z" fill="#474747"/>
<path d="M157.873 2.98875C156.941 3.05838 156.047 3.20483 155.222 3.4233C155.115 3.45211 155.01 3.46411 154.906 3.46411C154.368 3.46411 153.878 3.11119 153.73 2.57582C153.555 1.9348 153.939 1.27698 154.589 1.10413C155.563 0.844839 156.607 0.674382 157.693 0.592755C158.369 0.542338 158.946 1.0393 158.997 1.69952C159.049 2.35974 158.545 2.93594 157.875 2.98635L157.873 2.98875Z" fill="#474747"/>
<path d="M162.395 27.6137C162.186 28.041 161.75 28.2907 161.3 28.2907C161.122 28.2907 160.942 28.2523 160.772 28.1707C160.467 28.0242 160.163 27.8778 159.859 27.7289C159.272 27.4408 158.683 27.1287 158.104 26.8022C157.52 26.4733 157.318 25.7387 157.651 25.1649C157.984 24.5887 158.729 24.3894 159.311 24.7183C159.849 25.0208 160.397 25.3113 160.942 25.5778C161.237 25.7219 161.533 25.8659 161.83 26.0076C162.437 26.2957 162.69 27.0135 162.395 27.6113V27.6137Z" fill="#474747"/>
<path d="M45.3174 50.2605C45.3004 50.2605 45.2833 50.2605 45.2663 50.2605C44.3072 50.2196 43.3311 50.186 42.3648 50.1596C41.6929 50.1404 41.1623 49.5882 41.1818 48.9256C41.2012 48.263 41.7562 47.742 42.4329 47.7588C43.4115 47.7852 44.3973 47.8212 45.3685 47.8597C46.0403 47.8885 46.5612 48.4478 46.532 49.1105C46.5053 49.7563 45.9649 50.2605 45.3174 50.2605Z" fill="#474747"/>
<path d="M71.436 53.043C71.3654 53.043 71.2949 53.0382 71.2243 53.0238C70.2749 52.8606 69.311 52.6997 68.3593 52.5485C67.6948 52.4428 67.2444 51.8282 67.3515 51.1728C67.4586 50.5174 68.0793 50.0708 68.7463 50.1765C69.7102 50.3277 70.6839 50.491 71.6454 50.6566C72.3075 50.7719 72.7505 51.3937 72.6336 52.0467C72.529 52.6301 72.0154 53.0406 71.436 53.0406V53.043Z" fill="#474747"/>
<path d="M19.1454 50.7575C18.1888 50.8319 17.2151 50.9135 16.2512 50.9999C16.2147 51.0023 16.1758 51.0047 16.1392 51.0047C15.5161 51.0047 14.9855 50.5366 14.9295 49.9124C14.8686 49.2521 15.3628 48.6688 16.0322 48.6087C17.0058 48.5223 17.9916 48.4383 18.958 48.3639C19.6249 48.311 20.214 48.8056 20.2676 49.4658C20.3211 50.126 19.8197 50.7046 19.1503 50.7575H19.1454Z" fill="#474747"/>
<path d="M36.5569 50.0756H36.4741C35.5394 50.0756 34.5901 50.0828 33.6529 50.0948C33.648 50.0948 33.6432 50.0948 33.6359 50.0948C32.9713 50.0948 32.4285 49.569 32.4188 48.9112C32.4091 48.2486 32.947 47.7036 33.6188 47.694C34.5657 47.682 35.5272 47.6748 36.479 47.6748H36.5569C37.2287 47.6748 37.7739 48.2126 37.7739 48.8752C37.7739 49.5378 37.2287 50.0756 36.5569 50.0756Z" fill="#474747"/>
<path d="M121.791 67.7264C121.665 67.7264 121.538 67.7072 121.411 67.6663C120.516 67.3759 119.605 67.0757 118.627 66.7444C117.991 66.5284 117.653 65.8465 117.87 65.2199C118.089 64.5933 118.78 64.2596 119.415 64.4733C120.382 64.7998 121.282 65.0999 122.168 65.3856C122.806 65.5921 123.154 66.2715 122.945 66.9005C122.777 67.4071 122.3 67.7264 121.789 67.7264H121.791Z" fill="#474747"/>
<path d="M185.593 43.1157C185.751 42.4723 186.411 42.0762 187.063 42.2322C187.715 42.3883 188.117 43.0389 187.959 43.6823C187.723 44.6378 187.443 45.603 187.126 46.5441C186.956 47.0482 186.481 47.3675 185.97 47.3675C185.843 47.3675 185.714 47.3483 185.588 47.3075C184.95 47.0987 184.604 46.4192 184.814 45.7902C185.108 44.9091 185.371 44.0088 185.593 43.1157Z" fill="#474747"/>
<path d="M138.777 71.8989C138.718 71.8989 138.657 71.8941 138.599 71.8869C137.633 71.7477 136.647 71.5844 135.671 71.4044C135.011 71.2819 134.575 70.6553 134.7 70.0047C134.824 69.3517 135.461 68.9244 136.119 69.0468C137.066 69.2221 138.017 69.3781 138.952 69.5125C139.616 69.6086 140.077 70.2184 139.979 70.8738C139.892 71.4716 139.371 71.9013 138.777 71.9013V71.8989Z" fill="#474747"/>
<path d="M183.303 54.6107C183.071 54.978 182.674 55.1797 182.266 55.1797C182.046 55.1797 181.825 55.1221 181.625 54.9996C181.053 54.6515 180.878 53.9121 181.231 53.3479C181.725 52.5604 182.195 51.7441 182.623 50.9231C182.933 50.3349 183.668 50.1044 184.264 50.4069C184.86 50.7118 185.096 51.4344 184.787 52.025C184.327 52.9013 183.828 53.7728 183.3 54.6107H183.303Z" fill="#474747"/>
<path d="M80.0333 54.726C79.9457 54.726 79.858 54.7164 79.768 54.6972C78.8284 54.4931 77.8742 54.2915 76.9273 54.0994C76.2701 53.965 75.8466 53.3311 75.9804 52.6805C76.1168 52.0323 76.7594 51.6122 77.419 51.7466C78.3781 51.9411 79.3444 52.1452 80.2938 52.3516C80.951 52.4957 81.3648 53.1367 81.2187 53.7825C81.0922 54.3419 80.5907 54.7236 80.0309 54.7236L80.0333 54.726Z" fill="#474747"/>
<path d="M153.457 72.3358C153.416 72.3406 153.377 72.3406 153.335 72.3406C152.717 72.3406 152.189 71.8773 152.126 71.2579C152.06 70.5976 152.547 70.0094 153.216 69.9446C154.168 69.851 155.117 69.731 156.037 69.5845C156.699 69.4789 157.325 69.923 157.432 70.5784C157.539 71.2339 157.089 71.8485 156.424 71.9541C155.453 72.1077 154.455 72.2374 153.455 72.3334L153.457 72.3358Z" fill="#474747"/>
<path d="M162.276 70.624C162.157 70.66 162.038 70.6769 161.921 70.6769C161.4 70.6769 160.918 70.3431 160.757 69.827C160.56 69.1932 160.923 68.5209 161.565 68.3289C162.473 68.0552 163.371 67.7479 164.238 67.4166C164.864 67.1765 165.569 67.4814 165.813 68.1008C166.056 68.7202 165.747 69.414 165.119 69.6541C164.197 70.0094 163.24 70.3359 162.274 70.6264L162.276 70.624Z" fill="#474747"/>
<path d="M177.896 57.8446C178.334 57.3404 179.103 57.2852 179.612 57.715C180.121 58.1471 180.182 58.9058 179.744 59.4075C179.089 60.159 178.398 60.8936 177.692 61.5875C177.453 61.8203 177.144 61.938 176.832 61.938C176.521 61.938 176.207 61.8203 175.971 61.5851C175.496 61.1145 175.498 60.3559 175.976 59.8877C176.638 59.2371 177.285 58.5504 177.899 57.847L177.896 57.8446Z" fill="#474747"/>
<path d="M169.932 67.2245C169.515 67.2245 169.111 67.0133 168.883 66.6363C168.539 66.0649 168.732 65.3303 169.309 64.9918C170.109 64.5236 170.903 64.0123 171.667 63.4745C172.215 63.0903 172.974 63.2152 173.364 63.753C173.753 64.2931 173.627 65.0422 173.081 65.4263C172.261 66.0049 171.409 66.5523 170.55 67.0541C170.355 67.1669 170.141 67.2221 169.932 67.2221V67.2245Z" fill="#474747"/>
<path d="M96.9656 59.1939C96.8439 59.1939 96.7222 59.1771 96.6005 59.1387C95.6803 58.853 94.7456 58.5721 93.8207 58.2984C93.1756 58.1088 92.8105 57.4413 93.0028 56.8051C93.1951 56.1689 93.8742 55.8088 94.5168 55.9985C95.4515 56.2745 96.3984 56.5602 97.3283 56.8483C97.9684 57.0476 98.3263 57.7198 98.1242 58.3536C97.9611 58.8674 97.4816 59.1939 96.9631 59.1939H96.9656Z" fill="#474747"/>
<path d="M88.5481 56.7787C88.4434 56.7787 88.3388 56.7643 88.2316 56.7379C87.3018 56.493 86.3549 56.2505 85.4202 56.0177C84.7679 55.8544 84.3735 55.2038 84.5366 54.5604C84.7021 53.917 85.3642 53.528 86.0141 53.6913C86.961 53.9266 87.9176 54.1714 88.8597 54.4211C89.5096 54.5916 89.8942 55.2518 89.7213 55.8904C89.5753 56.4258 89.0836 56.7811 88.5457 56.7811L88.5481 56.7787Z" fill="#474747"/>
<path d="M105.273 61.9476C105.139 61.9476 105.001 61.926 104.867 61.878C103.954 61.5586 103.039 61.2417 102.121 60.9296C101.486 60.7136 101.147 60.0317 101.366 59.4051C101.586 58.7785 102.279 58.4448 102.912 58.6609C103.837 58.9754 104.76 59.2923 105.68 59.6164C106.313 59.8373 106.644 60.5239 106.42 61.1481C106.242 61.6403 105.772 61.9476 105.273 61.9476Z" fill="#474747"/>
<path d="M130.194 70.1703C130.094 70.1703 129.992 70.1583 129.892 70.1319C128.967 69.899 128.008 69.6421 127.042 69.3708C126.394 69.1907 126.019 68.5257 126.204 67.8871C126.387 67.2485 127.061 66.8788 127.706 67.0612C128.653 67.3253 129.593 67.5774 130.496 67.8055C131.146 67.9711 131.54 68.6242 131.372 69.2652C131.231 69.8077 130.737 70.1679 130.194 70.1679V70.1703Z" fill="#474747"/>
<path d="M166.4 4.20355C166.266 4.20355 166.127 4.18194 165.993 4.13393C165.129 3.83143 164.236 3.58414 163.335 3.39208C162.678 3.25283 162.259 2.61422 162.4 1.96601C162.541 1.31779 163.189 0.904852 163.846 1.0441C164.849 1.25537 165.845 1.53386 166.806 1.86997C167.439 2.09085 167.772 2.77748 167.548 3.40168C167.371 3.89385 166.903 4.20115 166.402 4.20115L166.4 4.20355Z" fill="#474747"/>
<path d="M113.515 64.8862C113.379 64.8862 113.238 64.8622 113.101 64.8142C112.184 64.4877 111.269 64.1588 110.353 63.8298C109.723 63.6042 109.397 62.9151 109.626 62.2909C109.854 61.6691 110.555 61.3474 111.186 61.5731C112.099 61.902 113.014 62.2285 113.929 62.555C114.562 62.7807 114.888 63.4673 114.659 64.0915C114.479 64.5813 114.012 64.8838 113.515 64.8838V64.8862Z" fill="#474747"/>
<path d="M170.513 30.8597C170.333 31.347 169.866 31.6495 169.369 31.6495C169.231 31.6495 169.092 31.6255 168.953 31.5775C168.028 31.2462 167.096 30.8933 166.188 30.5331C165.565 30.2859 165.263 29.5872 165.514 28.9726C165.764 28.358 166.473 28.0603 167.096 28.3076C167.979 28.6581 168.885 28.999 169.785 29.3231C170.416 29.5488 170.742 30.2378 170.513 30.8621V30.8597Z" fill="#474747"/>
<path d="M265.961 13.2954C265.727 13.5019 265.438 13.6027 265.148 13.6027C264.815 13.6027 264.484 13.4683 264.243 13.2066C263.792 12.7144 263.834 11.9558 264.333 11.5116C265.046 10.8778 265.754 10.2272 266.441 9.57417C266.925 9.11321 267.694 9.12762 268.162 9.60538C268.629 10.0831 268.614 10.8418 268.13 11.3027C267.424 11.975 266.696 12.6448 265.961 13.2954Z" fill="#474747"/>
<path d="M254.18 22.1159C253.355 22.6345 252.505 23.1482 251.658 23.6452C251.463 23.758 251.249 23.8133 251.04 23.8133C250.624 23.8133 250.219 23.602 249.991 23.2251C249.647 22.6537 249.84 21.919 250.417 21.5805C251.242 21.098 252.067 20.5962 252.873 20.092C253.44 19.7367 254.192 19.9 254.552 20.4593C254.912 21.0187 254.747 21.7606 254.18 22.1159Z" fill="#474747"/>
<path d="M212.66 36.4511C211.687 36.5615 210.696 36.6576 209.718 36.7392C209.683 36.7416 209.647 36.744 209.613 36.744C208.987 36.744 208.454 36.271 208.401 35.6444C208.345 34.9842 208.841 34.4032 209.511 34.348C210.465 34.2688 211.431 34.1727 212.383 34.0671C213.05 33.9903 213.654 34.4656 213.731 35.1235C213.807 35.7813 213.327 36.3767 212.66 36.4535V36.4511Z" fill="#474747"/>
<path d="M246.476 26.4589C245.604 26.8982 244.711 27.3304 243.82 27.7457C243.652 27.825 243.474 27.861 243.302 27.861C242.846 27.861 242.408 27.6065 242.201 27.1719C241.914 26.5717 242.175 25.8563 242.783 25.573C243.65 25.1697 244.521 24.7471 245.371 24.3198C245.969 24.0197 246.702 24.2526 247.009 24.8432C247.315 25.4338 247.077 26.1564 246.478 26.4589H246.476Z" fill="#474747"/>
<path d="M203.815 37.0585C202.975 37.0801 202.128 37.0897 201.291 37.0897H200.857C200.185 37.0849 199.643 36.5471 199.645 35.8845C199.647 35.2243 200.193 34.6889 200.862 34.6889H201.291C202.106 34.6889 202.934 34.6793 203.751 34.6601C204.418 34.6457 204.983 35.1666 204.998 35.8293C205.012 36.4919 204.484 37.0441 203.812 37.0585H203.815Z" fill="#474747"/>
<path d="M221.419 35.0778C220.457 35.2723 219.479 35.4547 218.512 35.6204C218.442 35.6324 218.371 35.6396 218.303 35.6396C217.721 35.6396 217.207 35.229 217.105 34.6457C216.991 33.9926 217.434 33.3708 218.096 33.258C219.038 33.0971 219.992 32.9171 220.932 32.7298C221.591 32.5978 222.234 33.0155 222.368 33.6661C222.502 34.3167 222.078 34.9505 221.419 35.0826V35.0778Z" fill="#474747"/>
<path d="M261.426 17.055C260.652 17.6528 259.859 18.2482 259.067 18.8196C258.851 18.9757 258.598 19.0525 258.349 19.0525C257.975 19.0525 257.605 18.882 257.366 18.5603C256.969 18.0249 257.086 17.2735 257.629 16.8822C258.401 16.3252 259.172 15.7466 259.924 15.1656C260.453 14.7551 261.219 14.8463 261.633 15.3697C262.049 15.8906 261.957 16.6469 261.426 17.055Z" fill="#474747"/>
<path d="M230.021 32.9483C229.081 33.2244 228.125 33.4909 227.175 33.7406C227.071 33.767 226.966 33.7814 226.861 33.7814C226.324 33.7814 225.832 33.4261 225.686 32.8907C225.513 32.2497 225.9 31.5919 226.547 31.4214C227.472 31.1789 228.407 30.9172 229.322 30.6484C229.967 30.4587 230.644 30.8188 230.836 31.455C231.029 32.0912 230.664 32.7587 230.019 32.9483H230.021Z" fill="#474747"/>
<path d="M238.397 30.0746C237.484 30.4347 236.556 30.7828 235.634 31.1141C235.495 31.1645 235.356 31.1861 235.218 31.1861C234.721 31.1861 234.254 30.8836 234.074 30.3963C233.842 29.7745 234.169 29.0854 234.799 28.8574C235.697 28.5332 236.605 28.1923 237.494 27.8418C238.117 27.5969 238.825 27.897 239.076 28.5116C239.324 29.1262 239.022 29.8249 238.397 30.0722V30.0746Z" fill="#474747"/>
<path d="M178.918 33.2964C178.777 33.839 178.283 34.1991 177.74 34.1991C177.64 34.1991 177.538 34.1871 177.436 34.1607C176.484 33.9206 175.523 33.6613 174.581 33.39C173.936 33.2052 173.566 32.5378 173.753 31.9015C173.94 31.2653 174.615 30.898 175.262 31.0853C176.18 31.3494 177.115 31.6014 178.042 31.8343C178.692 32 179.086 32.653 178.918 33.294V33.2964Z" fill="#474747"/>
<path d="M173.94 8.52017C173.675 8.52017 173.407 8.43374 173.181 8.25848C172.446 7.67989 171.681 7.1277 170.907 6.61873C170.348 6.25141 170.197 5.50476 170.571 4.95498C170.944 4.40279 171.701 4.25394 172.258 4.62367C173.088 5.17105 173.911 5.76165 174.7 6.38345C175.226 6.79639 175.311 7.55264 174.892 8.07122C174.651 8.36892 174.298 8.52257 173.94 8.52257V8.52017Z" fill="#474747"/>
<path d="M195.027 36.8904C195.001 36.8904 194.974 36.8904 194.947 36.888C193.966 36.8256 192.973 36.7488 191.999 36.6575C191.33 36.5951 190.838 36.0093 190.904 35.3491C190.967 34.6889 191.559 34.2039 192.231 34.2688C193.182 34.3576 194.149 34.4344 195.105 34.4944C195.777 34.5376 196.286 35.109 196.242 35.7693C196.201 36.4055 195.665 36.8928 195.03 36.8928L195.027 36.8904Z" fill="#474747"/>
<path d="M180.797 14.4334C180.576 14.6014 180.315 14.6831 180.057 14.6831C179.692 14.6831 179.332 14.5222 179.091 14.2149C178.517 13.4779 177.91 12.7576 177.285 12.0734C176.835 11.5812 176.873 10.8226 177.372 10.3784C177.871 9.93428 178.641 9.9727 179.091 10.4649C179.76 11.1947 180.408 11.9654 181.021 12.7504C181.43 13.2762 181.33 14.03 180.797 14.4334Z" fill="#474747"/>
<path d="M185.04 21.979C184.877 22.0511 184.709 22.0847 184.541 22.0847C184.076 22.0847 183.633 21.8206 183.431 21.3764C183.046 20.5314 182.623 19.6911 182.173 18.8796C181.851 18.2986 182.068 17.5688 182.657 17.2519C183.246 16.935 183.986 17.1486 184.307 17.7296C184.787 18.5963 185.237 19.4918 185.649 20.3921C185.924 20.9971 185.649 21.7077 185.038 21.979H185.04Z" fill="#474747"/>
<path d="M188.891 37.7979C188.847 38.4317 188.312 38.9143 187.679 38.9143C187.649 38.9143 187.62 38.9143 187.593 38.9119C186.924 38.8663 186.418 38.2925 186.464 37.6299C186.493 37.2241 186.515 36.816 186.527 36.4174C186.532 36.2542 186.537 36.0885 186.539 35.9229C186.408 35.9469 186.269 35.9493 186.131 35.9277C185.159 35.7764 184.178 35.6084 183.214 35.4283C182.555 35.3059 182.119 34.6769 182.246 34.0263C182.37 33.3756 183.01 32.9483 183.667 33.0707C184.607 33.246 185.561 33.4092 186.508 33.5557C186.734 33.5917 186.936 33.6853 187.102 33.8222C187.284 33.7069 187.501 33.6397 187.735 33.6349C187.742 33.6349 187.749 33.6349 187.757 33.6349C188.419 33.6349 188.961 34.1583 188.974 34.8137C188.976 35.0082 188.979 35.205 188.979 35.3971C188.979 35.7596 188.974 36.1294 188.961 36.4943C188.947 36.924 188.925 37.361 188.893 37.7979H188.891Z" fill="#474747"/>
<path d="M187.387 30.2906C187.311 30.305 187.236 30.3122 187.163 30.3122C186.588 30.3122 186.077 29.9089 185.967 29.3327C185.797 28.4276 185.585 27.5153 185.337 26.6198C185.162 25.9812 185.544 25.3209 186.191 25.1457C186.839 24.9704 187.508 25.3498 187.686 25.9884C187.949 26.9463 188.178 27.9234 188.36 28.8909C188.484 29.5416 188.049 30.1706 187.387 30.2906Z" fill="#474747"/>
<path d="M18.1938 58.6656C13.5008 55.5758 6.24948 53.0166 0.500019 51.7081C5.72127 49.0048 12.0793 44.7146 15.823 40.5492L13.6858 50.03L18.1938 58.6656Z" fill="#474747"/>
</g>
<defs>
<clipPath id="clip0_41_4986">
<rect width="268" height="72" fill="white" transform="matrix(-1 0 0 1 268.5 0.590332)"/>
</clipPath>
</defs>
</svg>
