<svg width="21" height="17" viewBox="0 0 21 17" fill="none" xmlns="http://www.w3.org/2000/svg">
<path d="M10.7455 0.0878906C11.2795 0.0908906 12.6155 0.103891 14.0355 0.160891L14.5395 0.18289C15.9685 0.24989 17.3965 0.365891 18.1055 0.562891C19.0505 0.828891 19.7925 1.60289 20.0435 2.58489C20.4435 4.14489 20.4935 7.18689 20.4995 7.92389L20.5005 8.07589V8.24989C20.4935 8.98689 20.4435 12.0299 20.0435 13.5889C19.7895 14.5739 19.0465 15.3489 18.1055 15.6109C17.3965 15.8079 15.9685 15.9239 14.5395 15.9909L14.0355 16.0139C12.6155 16.0699 11.2795 16.0839 10.7455 16.0859L10.5105 16.0869H10.2555C9.12546 16.0799 4.39946 16.0289 2.89546 15.6109C1.95146 15.3449 1.20846 14.5709 0.957465 13.5889C0.557465 12.0289 0.507465 8.98689 0.501465 8.24989V7.92389C0.507465 7.18689 0.557465 4.14389 0.957465 2.58489C1.21146 1.59989 1.95446 0.82489 2.89646 0.56389C4.39946 0.14489 9.12646 0.0938906 10.2565 0.0878906H10.7455ZM8.50046 4.58789V11.5879L14.5005 8.08789L8.50046 4.58789Z" fill="#474747"/>
</svg>
